<svg width="170" height="309" viewBox="0 0 170 309" fill="none" xmlns="http://www.w3.org/2000/svg">
    <g opacity="0.05">
        <path d="M154.584 1.60565e-05L0 154.488L154.584 308.975L309.168 154.488L154.584 1.60565e-05Z" fill="black"/>
        <path d="M206.766 193.302H116.219C111.538 193.302 106.595 193.527 104.198 194.275C103.225 194.5 102.401 194.163 101.914 193.19C101.427 192.217 100.94 190.907 100.603 189.597C100.491 189.223 100.491 188.999 100.491 188.774C100.491 188.55 100.603 188.4 100.978 188.4C101.202 188.4 101.465 188.4 101.951 188.512C105.546 189.597 111.837 190.084 116.294 190.084H144.604C144.828 181.289 145.091 169.389 145.091 158.311H129.325C124.644 158.311 119.701 158.536 117.305 159.284C116.331 159.509 115.507 159.172 115.02 158.199C114.534 157.226 114.047 155.916 113.71 154.606C113.597 154.232 113.597 154.007 113.597 153.745C113.597 153.521 113.71 153.371 114.084 153.371C114.309 153.371 114.571 153.371 115.058 153.483C118.653 154.569 124.944 155.055 129.4 155.055H145.165C145.165 146.523 145.053 138.813 144.791 133.536H125.768C121.087 133.536 116.144 133.761 113.747 134.51C112.774 134.734 111.95 134.397 111.463 133.424C111.089 132.601 110.639 131.628 110.377 130.543C110.152 130.543 110.003 130.543 109.778 130.543C105.434 130.543 101.951 127.062 101.951 122.721C101.951 121.299 102.326 119.839 103.262 118.268C107.231 111.906 112.886 115.012 114.234 102.624C114.346 101.427 114.721 100.828 115.208 100.828C115.582 100.828 116.181 101.314 116.631 102.4C117.23 103.859 117.941 105.768 118.578 107.826H145.652C145.877 103.148 145.765 98.9194 145.278 96.1501C145.016 94.5783 144.791 93.4929 144.791 93.0438C144.791 92.445 145.016 92.3328 145.652 92.3328C146.027 92.3328 146.364 92.445 146.963 92.445C151.906 92.9315 157.673 93.5304 163.814 94.5034C165.499 94.728 166.361 95.5887 166.361 96.5243C166.361 97.4974 165.649 98.4329 164.076 98.9194C162.391 99.5182 160.931 99.7428 160.818 101.315C160.706 102.774 160.706 105.656 160.706 107.826C160.818 107.826 185.384 107.826 185.384 107.826C186.694 107.826 187.069 107.714 188.042 106.853C189.353 105.656 192.012 103.373 193.322 102.288C193.809 101.801 194.296 101.689 194.671 101.689C195.27 101.689 195.757 102.063 196.468 102.512C199.838 105.169 204.182 108.986 206.953 111.793C208.152 112.991 208.751 114.45 208.751 115.648C208.751 117.444 207.44 119.016 204.781 119.016C204.182 119.016 203.471 119.016 202.609 118.791C200.924 118.305 199.351 118.193 197.928 118.193C193.472 118.193 189.99 120.251 183.249 123.844C182.875 124.068 182.538 124.068 182.276 124.068C181.676 124.068 181.19 123.694 181.19 123.245C181.19 123.02 181.302 122.758 181.564 122.422C184.56 118.193 186.619 115.087 188.679 111.12H119.215C119.589 112.916 119.814 114.862 119.814 116.771C119.814 121.224 118.615 125.528 114.983 128.447C114.496 128.821 114.122 129.158 113.672 129.42C117.267 130.019 121.986 130.393 125.581 130.393H177.595C178.793 130.393 179.28 130.168 180.104 129.308C182.051 127.399 184.335 124.854 186.47 122.571C186.956 122.085 187.294 121.973 187.78 121.973C188.155 121.973 188.642 122.085 189.091 122.459C192.461 124.63 196.805 127.885 200.512 130.879C200.887 131.254 201.374 131.852 201.374 132.451C201.374 133.05 200.887 133.649 199.464 133.649H160.893C160.781 138.925 160.669 146.747 160.519 155.167H172.577C173.775 155.167 174.262 155.055 175.086 154.082C176.883 151.912 179.654 148.543 181.714 146.148C182.088 145.662 182.425 145.437 182.8 145.437C183.137 145.437 183.624 145.662 184.223 146.148C187.968 148.918 191.45 151.799 195.532 155.654C195.906 156.028 196.356 156.627 196.356 157.226C196.356 157.825 195.869 158.423 194.446 158.423H160.519C160.519 169.613 160.519 181.664 160.743 190.196H183.624C184.597 190.196 185.533 189.822 186.133 189.111C188.305 186.454 191.3 182.973 193.472 180.691C193.959 180.204 194.184 179.942 194.671 179.942C195.045 179.942 195.382 180.204 196.019 180.691C199.876 183.684 203.845 186.828 207.815 190.683C208.414 191.281 208.638 191.88 208.638 192.367C208.676 192.816 208.077 193.302 206.766 193.302ZM181.602 184.77C179.317 184.77 177.033 183.572 175.685 180.803C173.026 175.489 175.086 170.923 168.083 165.758C167.596 165.384 167.259 164.785 167.259 164.449C167.259 164.074 167.634 163.738 168.458 163.738C168.57 163.738 168.832 163.738 168.944 163.738C177.37 164.711 185.683 167.48 188.342 174.815C188.717 175.788 188.829 176.724 188.829 177.584C188.791 181.738 185.196 184.77 181.602 184.77Z" fill="white"/>
        <path d="M154.608 295.216L13.7688 154.464L154.608 13.7134L295.446 154.464L154.608 295.216ZM26.9502 154.464L154.645 282.08L282.34 154.464L154.645 26.8491L26.9502 154.464Z" fill="white"/>
        <path d="M151.625 40.2754H145.82V46.0797H151.625V40.2754Z" fill="white"/>
        <path d="M145.805 46.1587H140V51.9631H145.805V46.1587Z" fill="white"/>
        <path d="M139.921 52.0247H134.116V57.8289H139.921V52.0247Z" fill="white"/>
        <path d="M134.09 57.8643H128.286V63.6686H134.09V57.8643Z" fill="white"/>
        <path d="M128.187 63.7012H122.383V69.5056H128.187V63.7012Z" fill="white"/>
        <path d="M122.375 69.5781H116.57V75.3824H122.375V69.5781Z" fill="white"/>
        <path d="M116.472 75.4141H110.668V81.2183H116.472V75.4141Z" fill="white"/>
        <path d="M110.636 81.291H104.832V87.0953H110.636V81.291Z" fill="white"/>
        <path d="M104.769 87.1323H98.9643V92.9366H104.769V87.1323Z" fill="white"/>
        <path d="M98.9137 93.002H93.1094V98.8062H98.9137V93.002Z" fill="white"/>
        <path d="M93.0544 98.8379H87.2501V104.642H93.0544V98.8379Z" fill="white"/>
        <path d="M87.1989 104.717H81.3946V110.521H87.1989V104.717Z" fill="white"/>
        <path d="M81.3122 110.551L75.5079 110.559L75.5153 116.363L81.3197 116.355L81.3122 110.551Z" fill="white"/>
        <path d="M75.4489 116.428H69.6446V122.232H75.4489V116.428Z" fill="white"/>
        <path d="M69.6364 122.27H63.8321V128.074H69.6364V122.27Z" fill="white"/>
        <path d="M63.734 128.141H57.9297V133.945H63.734V128.141Z" fill="white"/>
        <path d="M57.867 133.983H52.0627V139.788H57.867V133.983Z" fill="white"/>
        <path d="M52.0276 139.858H46.2233V145.662H52.0276V139.858Z" fill="white"/>
        <path d="M46.1881 145.694L40.3838 145.702L40.3913 151.506L46.1956 151.499L46.1881 145.694Z" fill="white"/>
        <path d="M40.3044 151.57L34.5 151.577L34.5072 157.381L40.3115 157.374L40.3044 151.57Z" fill="white"/>
        <path d="M46.1881 157.41H40.3838V163.214H46.1881V157.41Z" fill="white"/>
        <path d="M52.0276 163.287H46.2233V169.091H52.0276V163.287Z" fill="white"/>
        <path d="M57.867 169.121L52.0627 169.128L52.0698 174.933L57.8741 174.926L57.867 169.121Z" fill="white"/>
        <path d="M63.734 175H57.9297V180.804H63.734V175Z" fill="white"/>
        <path d="M69.6364 180.838H63.8321V186.642H69.6364V180.838Z" fill="white"/>
        <path d="M75.4489 186.713H69.6446V192.517H75.4489V186.713Z" fill="white"/>
        <path d="M81.3122 192.551H75.5079V198.355H81.3122V192.551Z" fill="white"/>
        <path d="M87.1989 198.428H81.3946V204.232H87.1989V198.428Z" fill="white"/>
        <path d="M93.0544 204.267H87.2501V210.072H93.0544V204.267Z" fill="white"/>
        <path d="M98.9137 210.104H93.1094V215.908H98.9137V210.104Z" fill="white"/>
        <path d="M104.769 215.981H98.9643V221.786H104.769V215.981Z" fill="white"/>
        <path d="M110.636 221.854H104.832V227.658H110.636V221.854Z" fill="white"/>
        <path d="M116.472 227.691H110.668V233.496H116.472V227.691Z" fill="white"/>
        <path d="M122.375 233.527H116.57V239.332H122.375V233.527Z" fill="white"/>
        <path d="M128.187 239.406H122.383V245.211H128.187V239.406Z" fill="white"/>
        <path d="M134.09 245.241H128.286V251.045H134.09V245.241Z" fill="white"/>
        <path d="M139.921 251.12H134.116V256.924H139.921V251.12Z" fill="white"/>
        <path d="M145.797 256.996H139.992V262.8H145.797V256.996Z" fill="white"/>
        <path d="M151.636 262.834H145.832V268.638H151.636V262.834Z" fill="white"/>
        <path d="M157.519 268.672H151.714V274.476H157.519V268.672Z" fill="white"/>
        <path d="M163.34 262.83H157.536V268.634H163.34V262.83Z" fill="white"/>
        <path d="M169.233 256.995H163.429V262.799H169.233V256.995Z" fill="white"/>
        <path d="M175.082 251.12H169.277V256.924H175.082V251.12Z" fill="white"/>
        <path d="M175.082 52.0247H169.277V57.8289H175.082V52.0247Z" fill="white"/>
        <path d="M169.238 46.1567H163.433V51.9611H169.238V46.1567Z" fill="white"/>
        <path d="M163.375 40.2754H157.57V46.0797H163.375V40.2754Z" fill="white"/>
        <path d="M157.519 34.4355H151.714V40.2399H157.519V34.4355Z" fill="white"/>
        <path d="M136.688 209.24C136.5 209.24 136.313 209.24 136.088 209.165C134.328 208.791 132.831 208.604 130.846 208.604C131.071 216.763 131.52 218.671 131.52 220.056C131.52 220.243 131.52 220.467 131.482 220.655C131.258 222.339 130.284 223.574 129.198 223.649C129.161 223.649 129.086 223.649 129.011 223.649C128.187 223.649 127.476 223.125 127.213 222.152C126.914 221.216 125.678 220.393 123.319 219.27C122.982 219.12 122.832 219.008 122.832 218.971C122.832 218.933 122.907 218.896 123.057 218.896C123.169 218.896 123.319 218.896 123.506 218.933C125.191 219.12 126.277 219.233 127.663 219.307C127.7 219.307 127.738 219.307 127.775 219.307C128.262 219.307 128.374 219.158 128.374 218.746C128.374 218.671 128.374 218.671 128.374 218.596C128.299 215.864 128.187 214.667 128.037 211.149C124.892 215.752 121.372 218.409 115.605 220.168C115.38 220.243 115.23 220.28 115.156 220.28C115.118 220.28 115.081 220.243 115.081 220.206C115.081 220.131 115.23 219.981 115.53 219.794C119.35 217.287 123.394 213.245 125.416 209.016C123.806 209.203 122.42 209.502 121.11 209.802C120.099 210.026 119.612 210.513 119.087 210.513C117.927 210.513 116.803 208.567 116.803 207.294C116.803 207.145 116.841 206.958 116.841 206.808C116.916 206.546 116.953 206.434 117.028 206.434C117.065 206.434 117.178 206.546 117.29 206.733C117.777 207.407 118.75 207.594 119.874 207.594C120.099 207.594 120.361 207.594 120.585 207.556C122.533 207.407 124.892 207.107 127.813 206.883C127.738 205.797 127.7 204.6 127.551 203.365C127.476 202.579 126.802 201.793 125.716 201.718C125.453 201.681 125.304 201.606 125.304 201.494C125.304 201.381 125.453 201.232 125.79 201.007C126.24 200.745 126.802 200.633 127.363 200.633C129.011 200.633 130.958 201.531 131.145 202.504C131.183 202.616 131.183 202.729 131.183 202.803C131.183 203.402 130.696 203.402 130.696 204.226C130.696 205.161 130.734 205.723 130.734 206.696C131.745 206.658 132.119 206.621 133.13 206.621C134.029 206.583 134.141 206.172 134.815 206.172C134.853 206.172 134.965 206.209 135.04 206.209C137.025 206.471 137.886 207.407 137.886 208.155C137.961 208.791 137.511 209.24 136.688 209.24Z" fill="white"/>
        <path d="M161.64 204.266C161.415 205.09 161.041 204.715 159.918 205.801C158.869 206.811 157.783 207.822 156.248 209.094C157.146 209.468 157.671 210.179 157.671 210.815C157.671 210.853 157.671 210.853 157.671 210.89C157.671 211.564 157.296 211.564 157.259 212.612C157.221 213.473 157.221 214.296 157.221 215.044C157.221 218.787 157.483 220.508 157.483 222.005C157.483 222.305 157.483 222.567 157.446 222.866C157.371 223.951 156.585 224.662 155.798 224.662C155.012 224.662 154.151 223.989 153.851 222.192C153.814 221.93 153.814 221.706 153.814 221.519C153.814 220.546 154.375 220.508 154.375 214.146C154.375 213.772 154.375 213.398 154.375 213.023C154.375 211.976 154.3 211.489 154.001 211.04C150.893 213.435 147.897 215.157 143.328 216.991C143.179 217.028 143.029 217.065 142.954 217.065C142.879 217.065 142.804 217.028 142.804 216.991C142.804 216.916 142.917 216.803 143.179 216.616C149.245 212.537 154.488 207.447 156.622 204.229C157.184 203.443 157.521 202.769 157.521 202.171C157.521 201.871 157.446 201.572 157.221 201.235C157.072 201.048 156.997 200.898 156.997 200.748C156.997 200.599 157.184 200.487 157.633 200.487C157.671 200.487 157.783 200.487 157.82 200.487C159.88 200.487 161.715 202.732 161.715 204.004C161.678 204.042 161.678 204.191 161.64 204.266Z" fill="white"/>
    </g>
</svg>
