<svg width="28" height="22" viewBox="0 0 28 22" fill="none" xmlns="http://www.w3.org/2000/svg">
    <path d="M23.7961 4.15258C23.4244 3.78528 22.8411 3.73112 22.4066 4.02371C20.7699 5.1263 12.5606 10.6707 11.6783 11.5426C10.3989 12.8072 10.3989 14.8647 11.6783 16.1293C12.318 16.7615 13.1584 17.0777 13.9987 17.0777C14.839 17.0777 15.6793 16.7615 16.3191 16.1293C17.2013 15.2573 22.8109 7.1436 23.9266 5.52598C24.2225 5.09663 24.1677 4.51998 23.7961 4.15258ZM14.7721 14.6004C14.3457 15.022 13.6517 15.022 13.2253 14.6004C12.7988 14.1789 12.7987 13.4933 13.225 13.0717C13.5678 12.7369 15.8986 11.094 18.7663 9.12392C16.773 11.9582 15.1107 14.2617 14.7721 14.6004Z" fill="white"/>
    <path d="M5.04419 18.8661L3.69387 19.5171C2.70583 17.7743 2.18763 15.8291 2.18763 13.8378C2.18763 12.3788 2.45983 10.9815 2.95658 9.69279L4.50384 10.4263C4.65643 10.4986 4.81749 10.5329 4.97615 10.5329C5.38376 10.5329 5.77508 10.3067 5.96316 9.91911C6.22436 9.38079 5.99466 8.73501 5.44994 8.47679L3.92232 7.75258C5.82102 4.69204 9.10613 2.55826 12.9071 2.21178V3.83777C12.9071 4.43485 13.3968 4.91885 14.0009 4.91885C14.605 4.91885 15.0947 4.43485 15.0947 3.83777V2.21097C16.3979 2.32821 17.6588 2.65621 18.8559 3.19026C19.4063 3.43594 20.0542 3.19383 20.3028 2.64978C20.5514 2.10556 20.3065 1.46529 19.7559 1.21962C17.942 0.410377 16.0058 0 14.0008 0C10.2611 0 6.74518 1.43935 4.10072 4.05296C1.45636 6.66663 0 10.1416 0 13.8378C0 16.5691 0.820253 19.2256 2.3721 21.5197C2.58113 21.8286 2.92672 22 3.2821 22C3.44366 22 3.6073 21.9646 3.76103 21.8905L6.00335 20.8094C6.54633 20.5476 6.77176 19.9004 6.50689 19.3638C6.24203 18.8272 5.58716 18.6044 5.04419 18.8661Z" fill="white"/>
    <path d="M26.7667 8.14832C26.5181 7.60416 25.8704 7.362 25.3196 7.60778C24.7691 7.85345 24.5242 8.49372 24.7728 9.03788C25.4631 10.5491 25.8131 12.1636 25.8131 13.8363C25.8131 15.8306 25.2932 17.7789 24.3022 19.5238L22.8925 18.8602C22.3471 18.6036 21.6944 18.8324 21.4346 19.3715C21.1749 19.9106 21.4065 20.5557 21.952 20.8124L24.249 21.8935C24.4001 21.9646 24.5603 21.9986 24.7187 21.9986C25.0741 21.9986 25.4198 21.8269 25.6285 21.5182C27.1805 19.2241 28.0007 16.5676 28.0007 13.8363C28.0007 11.8547 27.5855 9.94102 26.7667 8.14832Z" fill="white"/>
</svg>
