<svg width="11" height="15" viewBox="0 0 11 15" fill="none" xmlns="http://www.w3.org/2000/svg">
    <path d="M5.33763 7.60287C6.89776 7.60287 8.16262 6.06663 8.16262 4.17157C8.16262 2.27647 7.74734 0.740234 5.33763 0.740234C2.92791 0.740234 2.51256 2.27647 2.51256 4.17157C2.51256 6.06663 3.77741 7.60287 5.33763 7.60287Z" fill="white"/>
    <path d="M0.000555528 12.8411C7.44267e-05 12.7256 -0.000406675 12.8086 0.000555528 12.8411V12.8411Z" fill="black"/>
    <path d="M10.6758 12.9319C10.6773 12.9002 10.6763 12.7124 10.6758 12.9319V12.9319Z" fill="black"/>
    <path d="M10.6655 12.7036C10.6132 9.40233 10.182 8.46165 6.88276 7.86621C6.88276 7.86621 6.41834 8.45801 5.33586 8.45801C4.25338 8.45801 3.78888 7.86621 3.78888 7.86621C0.525603 8.45516 0.0682363 9.38188 0.00809853 12.5963C0.00316724 12.8588 0.00088202 12.8726 0 12.8421C0.000200459 12.8992 0.000440921 13.0048 0.000440921 13.189C0.000440921 13.189 0.785919 14.7724 5.33586 14.7724C9.88572 14.7724 10.6713 13.189 10.6713 13.189C10.6713 13.0706 10.6714 12.9884 10.6715 12.9324C10.6706 12.9513 10.6688 12.9147 10.6655 12.7036Z" fill="white"/>
</svg>
