<svg width="10" height="10" viewBox="0 0 10 10" fill="none" xmlns="http://www.w3.org/2000/svg">
    <path d="M9.33556 7.52956e-07H0.420287C0.262947 -0.000296678 0.118792 0.0875444 0.0469133 0.227436C-0.0259571 0.369211 -0.0131676 0.539936 0.079928 0.669417L3.34611 5.27056C3.3472 5.27215 3.34839 5.27364 3.34948 5.27522C3.46815 5.43544 3.5324 5.62956 3.5327 5.82894V9.58023C3.532 9.69127 3.57562 9.79805 3.65385 9.87686C3.73217 9.95558 3.83865 10 3.94969 10C4.00611 9.9999 4.06202 9.9887 4.11417 9.96698L5.94951 9.26723C6.11389 9.21697 6.22305 9.06181 6.22305 8.87502V5.82894C6.22335 5.62956 6.28759 5.43544 6.40617 5.27522C6.40726 5.27364 6.40845 5.27215 6.40954 5.27056L9.67582 0.669318C9.76891 0.539936 9.7817 0.36931 9.70883 0.227535C9.63705 0.0875444 9.4928 -0.000296678 9.33556 7.52956e-07Z" fill="white"/>
</svg>
