<svg width="104" height="104" viewBox="0 0 104 104" fill="none" xmlns="http://www.w3.org/2000/svg">
    <rect y="52" width="73.5391" height="73.5391" transform="rotate(-45 0 52)" fill="#E60013"/>
    <path d="M61.6771 41.6086C61.4391 41.6086 61.2059 41.7055 61.0373 41.8733L59.1088 43.8026C59.2637 44.3917 59.3541 45.0065 59.3541 45.6432C59.3541 45.811 59.3403 45.9756 59.3291 46.141L62.317 43.1531C62.4881 42.982 62.5817 42.7553 62.5817 42.5132C62.5817 42.0145 62.1758 41.6086 61.6771 41.6086Z" fill="white"/>
    <path d="M39.5195 45.6426L40.7991 44.363L42.0787 45.6426L40.7991 46.9222L39.5195 45.6426Z" fill="white"/>
    <path d="M44.0401 66.6224V63.3948C44.0401 62.9502 43.6786 62.5879 43.2332 62.5879H40.8125V67.4293H43.2332C43.6786 67.4293 44.0401 67.067 44.0401 66.6224Z" fill="white"/>
    <path d="M62.1133 45.6436L63.3929 44.364L64.6725 45.6436L63.3929 46.9231L62.1133 45.6436Z" fill="white"/>
    <path d="M40.8125 56.1338H63.4058V57.7476H40.8125V56.1338Z" fill="white"/>
    <path d="M62.9906 54.52L57.9216 49.9578C56.5975 51.7426 54.4818 52.9062 52.0934 52.9062C49.7049 52.9062 47.5892 51.7426 46.2651 49.9578L41.1961 54.52H62.9906Z" fill="white"/>
    <path d="M59.8339 40.8042L58.5542 39.5244L57.3906 40.688C57.8086 41.1334 58.1749 41.6272 58.4711 42.167L59.8339 40.8042Z" fill="white"/>
    <path d="M75.487 34.8285C75.3216 31.5283 72.6669 28.8727 69.3658 28.7081L66.9532 31.12L73.0744 37.2412L75.487 34.8285Z" fill="white"/>
    <path d="M54.5116 62.5879H49.6702C49.2248 62.5879 48.8633 62.9502 48.8633 63.3948V66.6224C48.8633 67.067 49.2248 67.4293 49.6702 67.4293H54.5116C54.957 67.4293 55.3185 67.067 55.3185 66.6224V63.3948C55.3185 62.9502 54.957 62.5879 54.5116 62.5879Z" fill="white"/>
    <path d="M63.4058 59.3623H40.8125V60.9761H43.2332C44.5678 60.9761 45.6539 62.0622 45.6539 63.3968V66.6245C45.6539 67.9591 44.5678 69.0452 43.2332 69.0452H40.8125V70.659H63.4058V69.0452H60.9851C59.6505 69.0452 58.5644 67.9591 58.5644 66.6245V63.3968C58.5644 62.0622 59.6505 60.9761 60.9851 60.9761H63.4058V59.3623ZM56.9506 66.6245C56.9506 67.9591 55.8645 69.0452 54.5299 69.0452H49.6885C48.3538 69.0452 47.2677 67.9591 47.2677 66.6245V63.3968C47.2677 62.0622 48.3538 60.9761 49.6885 60.9761H54.5299C55.8645 60.9761 56.9506 62.0622 56.9506 63.3968V66.6245Z" fill="white"/>
    <path d="M43.1538 41.8731C42.9851 41.7052 42.752 41.6084 42.5139 41.6084C42.0152 41.6084 41.6094 42.0143 41.6094 42.5129C41.6094 42.755 41.703 42.9818 41.874 43.1528L44.862 46.1408C44.8507 45.9754 44.837 45.8108 44.837 45.6429C44.837 45.0063 44.9274 44.3914 45.0823 43.8024L43.1538 41.8731Z" fill="white"/>
    <path d="M60.16 63.395V66.6227C60.16 67.0673 60.5215 67.4296 60.9669 67.4296H63.3876V62.5881H60.9669C60.5215 62.5881 60.16 62.9504 60.16 63.395Z" fill="white"/>
    <path d="M52.1043 48.0651C53.4412 48.0651 54.525 46.9813 54.525 45.6443C54.525 44.3074 53.4412 43.2236 52.1043 43.2236C50.7674 43.2236 49.6836 44.3074 49.6836 45.6443C49.6836 46.9813 50.7674 48.0651 52.1043 48.0651Z" fill="white"/>
    <path d="M34.6835 40.8035L40.8037 34.6833L42.0833 35.9629L35.9631 42.0831L34.6835 40.8035Z" fill="white"/>
    <path d="M39.999 42.5145C39.999 41.1258 41.1287 39.9961 42.5174 39.9961C42.632 39.9961 42.7449 40.0147 42.8579 40.03L44.5064 38.3823L43.2267 37.1025L37.1055 43.2237L38.3852 44.5035L40.0321 42.8558C40.0168 42.7428 39.999 42.6306 39.999 42.5145Z" fill="white"/>
    <path d="M64.2016 72.2705H39.9944C39.549 72.2705 39.1875 72.6328 39.1875 73.0774V74.6912C39.1875 75.1358 39.549 75.4981 39.9944 75.4981H64.2016C64.647 75.4981 65.0085 75.1358 65.0085 74.6912V73.0774C65.0085 72.6328 64.647 72.2705 64.2016 72.2705Z" fill="white"/>
    <path d="M62.9141 31.9316L64.1937 30.652L73.541 39.9994L72.2614 41.279L62.9141 31.9316Z" fill="white"/>
    <path d="M62.1133 35.9629L63.3929 34.6833L69.513 40.8034L68.2334 42.083L62.1133 35.9629Z" fill="white"/>
    <path d="M59.6993 38.382L61.347 40.0297C61.4599 40.0136 61.5729 39.9959 61.6883 39.9959C63.077 39.9959 64.2067 41.1255 64.2067 42.5142C64.2067 42.6304 64.1889 42.7426 64.1736 42.8555L65.8205 44.5032L67.1002 43.2235L60.979 37.1023L59.6993 38.382Z" fill="white"/>
    <path d="M30.6484 39.9971L39.9958 30.6497L41.2754 31.9293L31.928 41.2767L30.6484 39.9971Z" fill="white"/>
    <path d="M52.1089 51.294C55.2228 51.294 57.7572 48.7603 57.7572 45.6457C57.7572 42.531 55.2228 39.9973 52.1089 39.9973C48.9951 39.9973 46.4606 42.531 46.4606 45.6457C46.4606 48.7603 48.9951 51.294 52.1089 51.294ZM52.1089 41.6111C54.3335 41.6111 56.1434 43.421 56.1434 45.6457C56.1434 47.8703 54.3335 49.6802 52.1089 49.6802C49.8843 49.6802 48.0744 47.8703 48.0744 45.6457C48.0744 43.421 49.8843 41.6111 52.1089 41.6111Z" fill="white"/>
    <path d="M45.7294 42.1667C46.0255 41.6268 46.3918 41.133 46.8098 40.6876L45.6463 39.524L44.3665 40.8038L45.7294 42.1667Z" fill="white"/>
    <path d="M37.2409 31.1187L34.8282 28.7061C31.5272 28.8707 28.8724 31.5262 28.707 34.8272L31.1197 37.2399L37.2409 31.1187Z" fill="white"/>
</svg>
