<svg width="19" height="21" viewBox="0 0 19 21" fill="none" xmlns="http://www.w3.org/2000/svg">
    <path d="M6.49219 9H12.4922V15H6.49219V9Z" fill="white"/>
    <path d="M18.4955 2.625C18.4937 1.17609 17.3196 0.00183105 15.8705 0H15.3008L12.4135 3.60938C12.3422 3.69836 12.2344 3.75 12.1205 3.75H4.40076L0.495483 7.65527V18.375C0.497314 19.8239 1.67157 20.9982 3.12048 21H15.8705C17.3196 20.9982 18.4937 19.8239 18.4955 18.375V2.625ZM15.0106 16.9849C15.1082 17.079 15.1472 17.2185 15.113 17.3496C15.0786 17.4807 14.9762 17.5831 14.8451 17.6173C14.714 17.6517 14.5745 17.6125 14.4803 17.5151L12.7152 15.75H6.27576L4.69812 17.3276C4.55109 17.4697 4.31708 17.4677 4.17242 17.3231C4.02777 17.1784 4.02576 16.9446 4.16785 16.7974L5.74548 15.2197V8.78027L4.16785 7.20264C4.02576 7.05542 4.02777 6.82159 4.17242 6.67694C4.31708 6.53229 4.55109 6.53027 4.69812 6.67236L6.27576 8.25H12.7152L14.4803 6.48486C14.6276 6.34277 14.8614 6.34479 15.006 6.48944C15.1507 6.63409 15.1527 6.86792 15.0106 7.01514L13.2455 8.78027V15.2197L15.0106 16.9849Z" fill="white"/>
    <path d="M0 5.40317L2.12109 3.28207L2.9632 4.12436L0.842102 6.24527L0 5.40317Z" fill="white"/>
    <path d="M4.6167 3H5.3667V1.875C5.3667 1.25372 5.87042 0.75 6.4917 0.75H13.7365L14.3363 0H5.7417C5.12042 0 4.6167 0.503723 4.6167 1.125V3Z" fill="white"/>
</svg>
