<svg width="26" height="26" viewBox="0 0 26 26" fill="none" xmlns="http://www.w3.org/2000/svg">
    <path d="M14.1471 16.3877H11.55C11.4347 16.3877 11.3336 16.4312 11.2471 16.5177C11.1604 16.6043 11.1172 16.7052 11.1172 16.8207V19.4179C11.1172 19.5333 11.1606 19.6344 11.2471 19.7209C11.3336 19.8073 11.4346 19.8507 11.55 19.8507H14.1471C14.2624 19.8507 14.3637 19.8074 14.45 19.7209C14.5368 19.6344 14.5801 19.5333 14.5801 19.4179V16.8207C14.5801 16.7052 14.5369 16.6043 14.45 16.5177C14.3637 16.431 14.2624 16.3877 14.1471 16.3877Z" fill="white"/>
    <path d="M17.5563 8.61339C17.2605 8.06843 16.8782 7.60876 16.4092 7.23353C15.9404 6.85845 15.4134 6.55891 14.8292 6.33536C14.2449 6.11189 13.6642 6 13.0869 6C10.894 6 9.22031 6.95949 8.06596 8.87852C8.00831 8.97225 7.98841 9.07322 8.00642 9.18147C8.02453 9.28957 8.08044 9.37977 8.17421 9.4519L9.94894 10.8047C10.0427 10.8623 10.1329 10.8911 10.2195 10.8911C10.3494 10.8911 10.4611 10.8333 10.555 10.7179C11.0744 10.0687 11.4604 9.65392 11.7129 9.47347C12.0231 9.26432 12.4126 9.15979 12.8815 9.15979C13.3215 9.15979 13.7092 9.27524 14.0448 9.50591C14.3802 9.73681 14.5478 10.0038 14.5478 10.3067C14.5478 10.6457 14.4578 10.9199 14.2774 11.1291C14.0971 11.3383 13.794 11.5402 13.3682 11.7351C12.8057 11.9875 12.2897 12.3789 11.821 12.9092C11.3519 13.4395 11.1176 14.004 11.1176 14.6027V15.0897C11.1176 15.2269 11.1553 15.3621 11.2311 15.4955C11.3069 15.6291 11.3988 15.6958 11.5071 15.6958H14.1042C14.2197 15.6958 14.3206 15.64 14.4072 15.5278C14.4936 15.4163 14.5371 15.299 14.5371 15.1765C14.5371 14.9962 14.6363 14.7543 14.8345 14.4515C15.0329 14.1485 15.2799 13.9138 15.5759 13.7478C15.8571 13.5891 16.077 13.4613 16.2358 13.3637C16.3949 13.2665 16.6021 13.1092 16.8583 12.893C17.1144 12.6765 17.3128 12.4618 17.4533 12.2491C17.594 12.0363 17.7204 11.7603 17.8322 11.4211C17.9442 11.0821 18 10.7178 18 10.3282C17.9999 9.72946 17.8519 9.15778 17.5563 8.61339Z" fill="white"/>
    <rect x="1" y="1" width="24" height="24" stroke="white" stroke-width="2"/>
</svg>
