<svg width="92" height="92" viewBox="0 0 92 92" fill="none" xmlns="http://www.w3.org/2000/svg">
    <rect y="46" width="65.0538" height="65.0538" transform="rotate(-45 0 46)" fill="#215FDB"/>
    <path d="M52.7516 36.7035C49.7164 32.6093 46.6377 29.297 46.6067 29.264C46.4497 29.0957 46.23 29 46 29C45.7698 29 45.55 29.0956 45.3931 29.264C45.3623 29.297 42.2836 32.6093 39.2483 36.7035C35.1022 42.2959 33 46.6372 33 49.6064C33 56.7747 38.8317 62.6069 46 62.6069C53.1683 62.6069 59 56.7749 59 49.6064C59 46.6372 56.8977 42.296 52.7516 36.7035ZM47.2983 58.3999C46.6168 58.5609 45.9143 58.6426 45.2106 58.6426C40.208 58.6426 36.138 54.5725 36.138 49.5698C36.138 48.8802 36.3503 47.6306 37.3618 45.5944C37.4635 45.3897 37.6975 45.2882 37.9167 45.3531C38.1356 45.4183 38.2759 45.6317 38.2491 45.8585C38.2259 46.0544 38.2142 46.2388 38.2142 46.4067C38.2142 51.769 42.028 56.427 47.2827 57.4819C47.499 57.5255 47.656 57.7138 47.6598 57.9345C47.6637 58.1554 47.5132 58.349 47.2983 58.3999Z" fill="white"/>
    <path d="M60 35.9L57.1 33L45.5 44.6L33.9 33L31 35.9L42.6 47.5L31 59.1L33.9 62L45.5 50.4L57.1 62L60 59.1L48.4 47.5L60 35.9Z" fill="#E60013"/>
</svg>
