<svg width="92" height="92" viewBox="0 0 92 92" fill="none" xmlns="http://www.w3.org/2000/svg">
    <rect y="46.0002" width="65.0538" height="65.0538" transform="rotate(-45 0 46.0002)" fill="#E60013"/>
    <path d="M57.2061 65.3418H34.7939C34.3181 65.3418 33.8618 65.1528 33.5254 64.8164C33.189 64.4799 33 64.0237 33 63.5479V31.5637H40.7103L58.9996 42.3509V63.5479C58.9996 64.0236 58.8107 64.4798 58.4744 64.8162C58.138 65.1526 57.6818 65.3417 57.2061 65.3418Z" fill="white"/>
    <path d="M46.0001 65.3418H57.2062C57.6819 65.3418 58.1382 65.1528 58.4746 64.8164C58.8111 64.48 59.0001 64.0237 59.0001 63.5479V42.351L46.0001 34.684V65.3418Z" fill="white"/>
    <path d="M33.0004 46.1709H59V56.9396H33.0004V46.1709Z" fill="white"/>
    <path d="M46.0001 46.1709H58.9997V56.9396H46.0001V46.1709Z" fill="white"/>
    <path d="M34.1358 29.2817H39.6215V31.5634H34.1358V29.2817Z" fill="white"/>
    <path d="M33.6295 27H40.128V29.2817H33.6295V27Z" fill="white"/>
    <path d="M53.3629 31.5637H40.7101L45.3531 34.3027H52.4289C53.401 34.3027 54.3332 34.6888 55.0206 35.3762C55.7079 36.0635 56.0941 36.9958 56.0941 37.9679V40.6376L58.9999 42.3513V37.2003C58.9999 36.4601 58.8541 35.7271 58.5708 35.0432C58.2875 34.3593 57.8723 33.7379 57.3488 33.2145C56.8254 32.6911 56.204 32.2759 55.5201 31.9927C54.8362 31.7094 54.1032 31.5637 53.3629 31.5637Z" fill="white"/>
    <path d="M48.0634 52.406C48.0634 52.9532 47.846 53.4781 47.4591 53.865C47.0721 54.252 46.5473 54.4694 46.0001 54.4694C45.4528 54.4694 44.928 54.252 44.5411 53.865C44.1541 53.4781 43.9367 52.9532 43.9367 52.406C43.9367 51.2664 46.0001 48.6428 46.0001 48.6428C46.0001 48.6428 48.0634 51.2664 48.0634 52.406Z" fill="#E60013"/>
    <path d="M35.6158 33.2128C35.5341 33.2128 35.4532 33.2289 35.3777 33.2602C35.3022 33.2916 35.2336 33.3375 35.1759 33.3954C35.1182 33.4532 35.0725 33.5219 35.0414 33.5975C35.0102 33.6731 34.9943 33.7541 34.9946 33.8358V43.5083C34.9946 43.673 35.06 43.831 35.1765 43.9476C35.2931 44.0641 35.4511 44.1295 35.6158 44.1295C35.7806 44.1295 35.9386 44.0641 36.0552 43.9476C36.1717 43.831 36.2371 43.673 36.2371 43.5083V33.8358C36.2374 33.7541 36.2215 33.6731 36.1903 33.5975C36.1592 33.5219 36.1135 33.4532 36.0558 33.3954C35.9981 33.3375 35.9295 33.2916 35.854 33.2602C35.7785 33.2289 35.6976 33.2128 35.6158 33.2128Z" fill="#E60013"/>
    <path d="M35.8188 27H37.9382V29.2817H35.8188V27Z" fill="white"/>
    <path d="M53.3631 31.5637H46.0001V34.3027H52.4291C53.4011 34.3027 54.3333 34.6888 55.0206 35.3761C55.708 36.0633 56.0942 36.9955 56.0942 37.9675V40.6372L59.0001 42.3509V37.2003C59.0001 36.4601 58.8543 35.7271 58.571 35.0432C58.2877 34.3593 57.8725 33.7379 57.349 33.2145C56.8256 32.6911 56.2042 32.2759 55.5202 31.9927C54.8363 31.7094 54.1033 31.5637 53.3631 31.5637Z" fill="white"/>
    <path d="M48.0635 52.406C48.0635 51.2664 46.0001 48.6428 46.0001 48.6428V54.4694C46.5474 54.4694 47.0722 54.252 47.4591 53.865C47.8461 53.4781 48.0635 52.9532 48.0635 52.406Z" fill="#E60013"/>
</svg>
