<svg width="35" height="35" viewBox="0 0 35 35" fill="none" xmlns="http://www.w3.org/2000/svg">
    <path d="M34.4008 6.26022C34.0822 3.27538 31.7249 0.917511 28.7398 0.599213C21.2539 -0.199738 13.7461 -0.199738 6.26049 0.599213C3.27538 0.917778 0.917778 3.27538 0.599213 6.26022C-0.199738 13.7458 -0.199738 21.2539 0.599213 28.7395C0.917778 31.7246 3.27538 34.0822 6.26022 34.4008C13.7458 35.1997 21.2539 35.1997 28.7398 34.4008C31.7249 34.0822 34.0822 31.7246 34.4008 28.7395C35.1997 21.2539 35.1997 13.7461 34.4008 6.26022Z" fill="url(#paint0_radial)"/>
    <path d="M32.4968 7.52584C32.2143 4.87718 30.1223 2.78501 27.4734 2.50222C20.8308 1.79353 14.1684 1.79353 7.52584 2.50222C4.87718 2.78501 2.78501 4.87718 2.50222 7.52584C1.79353 14.1684 1.79353 20.8308 2.50222 27.4732C2.78501 30.1221 4.87718 32.2143 7.52584 32.4968C14.1684 33.2057 20.8308 33.2057 27.4732 32.4968C30.1221 32.2143 32.2143 30.1221 32.4968 27.4732C33.2057 20.8308 33.2057 14.1684 32.4968 7.52584Z" fill="url(#paint1_linear)"/>
    <path d="M0.525391 28.0137C0.549423 28.2556 0.574257 28.4975 0.600159 28.7395C0.918724 31.7243 3.27632 34.0819 6.26144 34.4005C13.7471 35.1994 21.2551 35.1994 28.7407 34.4005C31.7258 34.0819 34.0832 31.7243 34.4017 28.7395C34.4276 28.4975 34.4525 28.2556 34.4768 28.0137H0.525391Z" fill="url(#paint2_linear)"/>
    <path d="M34.4005 28.7393C34.8299 24.7171 35.028 20.6884 34.996 16.6603L26.9958 8.66008C25.9963 7.51907 24.5365 6.8069 22.8211 6.74522C19.2934 6.61812 15.7544 6.62452 12.2262 6.74576C9.29579 6.84669 7.24661 8.8163 6.7211 11.7112C6.62844 12.2222 6.5729 12.74 6.5 13.2548V21.7416C6.54032 22.0166 6.5996 22.2903 6.61803 22.5669C6.73552 24.3277 7.45917 25.8359 8.61781 26.8562L16.759 34.9971C20.7543 35.0252 24.7498 34.8265 28.7395 34.4006C31.7246 34.082 34.0819 31.7244 34.4005 28.7393Z" fill="url(#paint3_linear)"/>
    <path d="M34.401 28.7392C34.0827 31.7238 31.7246 34.0819 28.74 34.4002C24.7509 34.8259 20.7545 35.0248 16.7598 34.9967L8.63086 26.8679C9.5732 27.6927 10.8015 28.195 12.2269 28.2487C15.7544 28.3811 19.2941 28.3776 22.8216 28.2505C26.012 28.1352 28.3208 25.7738 28.4204 22.5834C28.5266 19.1959 28.5266 15.7995 28.4204 12.412C28.375 10.9401 27.8583 9.64503 27.0016 8.66504L34.9967 16.6601C35.0283 20.6877 34.8301 24.7169 34.401 28.7392Z" fill="url(#paint4_linear)"/>
    <path d="M21.6304 13.7096C20.6055 12.5937 19.135 11.8936 17.5005 11.8936C14.4046 11.8936 11.8945 14.4036 11.8945 17.4996C11.8945 19.134 12.5947 20.6046 13.7106 21.6294L26.681 34.5998C27.3675 34.54 28.054 34.4735 28.74 34.4003C31.7252 34.0818 34.0828 31.7242 34.4013 28.7391C34.4745 28.0531 34.541 27.3665 34.6008 26.68L21.6304 13.7096Z" fill="url(#paint5_linear)"/>
    <path d="M34.9322 21.2702L24.4935 10.8318C24.25 10.5122 23.8663 10.3047 23.4334 10.3047C22.697 10.3047 22.0996 10.9018 22.0996 11.6385C22.0996 12.0714 22.3071 12.4551 22.6267 12.6986L34.7456 24.8177C34.8278 23.6356 34.89 22.4529 34.9322 21.2702Z" fill="url(#paint6_linear)"/>
    <path d="M6.5 13.2549C6.5729 12.74 6.62844 12.2222 6.7211 11.7112C7.24635 8.8163 9.29579 6.84669 12.2262 6.74576C15.7544 6.62452 19.2934 6.61812 22.8211 6.74522C26.0105 6.86004 28.3203 9.22165 28.4199 12.4121C28.5259 15.7999 28.5259 19.196 28.4199 22.5838C28.3203 25.7742 26.0113 28.1356 22.8213 28.2507C19.2936 28.378 15.7539 28.3812 12.2264 28.2488C9.03651 28.1289 6.83138 25.7619 6.61803 22.5667C6.5996 22.2903 6.54032 22.0163 6.5 21.7413C6.5 18.9124 6.5 16.0835 6.5 13.2549ZM17.5027 26.3598C19.1171 26.3598 20.7332 26.4082 22.3455 26.3486C24.8735 26.2549 26.4284 24.7462 26.4874 22.2206C26.5605 19.0737 26.5605 15.9225 26.4874 12.7753C26.4284 10.2502 24.8724 8.70628 22.3455 8.65261C19.1382 8.58478 15.9275 8.58532 12.7202 8.65261C10.2125 8.70521 8.65305 10.2179 8.58496 12.7152C8.49844 15.9019 8.49844 19.0942 8.58496 22.281C8.65305 24.7779 10.2125 26.2557 12.7204 26.3486C14.3125 26.4079 15.9085 26.3598 17.5027 26.3598Z" fill="url(#paint7_linear)"/>
    <path d="M6.5 13.2549C6.5729 12.74 6.62844 12.2222 6.7211 11.7112C7.24635 8.8163 9.29579 6.84669 12.2262 6.74576C15.7544 6.62452 19.2934 6.61812 22.8211 6.74522C26.0105 6.86004 28.3203 9.22165 28.4199 12.4121C28.5259 15.7999 28.5259 19.196 28.4199 22.5838C28.3203 25.7742 26.0113 28.1356 22.8213 28.2507C19.2936 28.378 15.7539 28.3812 12.2264 28.2488C9.03651 28.1289 6.83138 25.7619 6.61803 22.5667C6.5996 22.2903 6.54032 22.0163 6.5 21.7413C6.5 18.9124 6.5 16.0835 6.5 13.2549ZM17.5027 26.3598C19.1171 26.3598 20.7332 26.4082 22.3455 26.3486C24.8735 26.2549 26.4284 24.7462 26.4874 22.2206C26.5605 19.0737 26.5605 15.9225 26.4874 12.7753C26.4284 10.2502 24.8724 8.70628 22.3455 8.65261C19.1382 8.58478 15.9275 8.58532 12.7202 8.65261C10.2125 8.70521 8.65305 10.2179 8.58496 12.7152C8.49844 15.9019 8.49844 19.0942 8.58496 22.281C8.65305 24.7779 10.2125 26.2557 12.7204 26.3486C14.3125 26.4079 15.9085 26.3598 17.5027 26.3598Z" fill="white"/>
    <path d="M17.5005 11.8945C14.4046 11.8945 11.8945 14.4043 11.8945 17.5003C11.8945 20.5965 14.4046 23.1063 17.5005 23.1063C20.5967 23.1063 23.1065 20.5965 23.1065 17.5003C23.1065 14.4043 20.5967 11.8945 17.5005 11.8945ZM17.5005 21.1762C15.4703 21.1762 13.8246 19.5305 13.8246 17.5003C13.8246 15.47 15.4703 13.8243 17.5005 13.8243C19.5308 13.8243 21.1765 15.47 21.1765 17.5003C21.1765 19.5305 19.5308 21.1762 17.5005 21.1762Z" fill="white"/>
    <path d="M24.767 11.6385C24.767 12.375 24.1699 12.972 23.4334 12.972C22.697 12.972 22.0996 12.375 22.0996 11.6385C22.0996 10.9018 22.697 10.3047 23.4334 10.3047C24.1699 10.3047 24.767 10.9018 24.767 11.6385Z" fill="white"/>
    <defs>
        <radialGradient id="paint0_radial" cx="0" cy="0" r="1" gradientUnits="userSpaceOnUse" gradientTransform="translate(7.1748 30.5872) scale(38.5988)">
            <stop stop-color="#FAE100"/>
            <stop offset="0.0544" stop-color="#FADC04"/>
            <stop offset="0.1167" stop-color="#FBCE0E"/>
            <stop offset="0.1829" stop-color="#FCB720"/>
            <stop offset="0.2514" stop-color="#FE9838"/>
            <stop offset="0.3054" stop-color="#FF7950"/>
            <stop offset="0.4922" stop-color="#FF1C74"/>
            <stop offset="1" stop-color="#6C1CD1"/>
        </radialGradient>
        <linearGradient id="paint1_linear" x1="13.4235" y1="15.2068" x2="-45.8706" y2="-18.1461" gradientUnits="userSpaceOnUse">
            <stop stop-color="#A1B5D8" stop-opacity="0"/>
            <stop offset="0.3094" stop-color="#90A2BD" stop-opacity="0.309804"/>
            <stop offset="0.7554" stop-color="#7C8B9C" stop-opacity="0.756863"/>
            <stop offset="1" stop-color="#748290"/>
        </linearGradient>
        <linearGradient id="paint2_linear" x1="17.501" y1="30.8958" x2="17.501" y2="36.3514" gradientUnits="userSpaceOnUse">
            <stop stop-color="#FAE100" stop-opacity="0"/>
            <stop offset="0.3068" stop-color="#FCA800" stop-opacity="0.305882"/>
            <stop offset="0.6275" stop-color="#FE7300" stop-opacity="0.627451"/>
            <stop offset="0.8685" stop-color="#FF5200" stop-opacity="0.866667"/>
            <stop offset="1" stop-color="#FF4500"/>
        </linearGradient>
        <linearGradient id="paint3_linear" x1="15.5086" y1="15.4591" x2="6.84664" y2="6.7972" gradientUnits="userSpaceOnUse">
            <stop stop-color="#833AB4" stop-opacity="0"/>
            <stop offset="1" stop-color="#833AB4"/>
        </linearGradient>
        <linearGradient id="paint4_linear" x1="23.9875" y1="32.0113" x2="19.6642" y2="11.6299" gradientUnits="userSpaceOnUse">
            <stop stop-color="#833AB4" stop-opacity="0"/>
            <stop offset="1" stop-color="#833AB4"/>
        </linearGradient>
        <linearGradient id="paint5_linear" x1="25.6329" y1="25.6319" x2="8.26799" y2="8.267" gradientUnits="userSpaceOnUse">
            <stop stop-color="#833AB4" stop-opacity="0"/>
            <stop offset="1" stop-color="#833AB4"/>
        </linearGradient>
        <linearGradient id="paint6_linear" x1="26.9204" y1="15.1255" x2="21.1782" y2="9.38321" gradientUnits="userSpaceOnUse">
            <stop stop-color="#833AB4" stop-opacity="0"/>
            <stop offset="1" stop-color="#833AB4"/>
        </linearGradient>
        <linearGradient id="paint7_linear" x1="24.449" y1="10.5989" x2="10.2907" y2="24.7572" gradientUnits="userSpaceOnUse">
            <stop stop-color="#833AB4"/>
            <stop offset="0.0922" stop-color="#9C3495"/>
            <stop offset="0.2927" stop-color="#DC2546"/>
            <stop offset="0.392" stop-color="#FD1D1D"/>
            <stop offset="0.5589" stop-color="#FC6831"/>
            <stop offset="0.6887" stop-color="#FC9B40"/>
            <stop offset="0.7521" stop-color="#FCAF45"/>
            <stop offset="0.7806" stop-color="#FDB750"/>
            <stop offset="0.8656" stop-color="#FECB6A"/>
            <stop offset="0.9415" stop-color="#FFD87A"/>
            <stop offset="1" stop-color="#FFDC80"/>
        </linearGradient>
    </defs>
</svg>
