<svg width="92" height="92" viewBox="0 0 92 92" fill="none" xmlns="http://www.w3.org/2000/svg">
    <rect y="46" width="65.0538" height="65.0538" transform="rotate(-45 0 46)" fill="#E60013"/>
    <path d="M47.283 46.4677C46.7799 46.1897 46.245 45.9779 45.7155 45.7581C45.4083 45.631 45.1144 45.4827 44.8549 45.2762C44.3439 44.8684 44.4419 44.2065 45.0403 43.9443C45.2097 43.8702 45.3871 43.8464 45.5672 43.8358C46.2609 43.7987 46.9202 43.9258 47.5478 44.2277C47.8602 44.3786 47.9635 44.3309 48.0694 44.0052C48.1806 43.661 48.2733 43.3115 48.3765 42.9647C48.4454 42.7316 48.3606 42.5781 48.1409 42.4801C47.7384 42.3027 47.3253 42.1756 46.8911 42.1068C46.3245 42.0194 46.3245 42.0167 46.3218 41.4474C46.3192 40.6452 46.3192 40.6452 45.5142 40.6452C45.3977 40.6452 45.2812 40.6425 45.1647 40.6452C44.7887 40.6558 44.7252 40.7219 44.7146 41.1006C44.7093 41.27 44.7146 41.4395 44.7119 41.6116C44.7093 42.1147 44.7066 42.1068 44.2247 42.2815C43.0597 42.7052 42.3395 43.4995 42.2627 44.7705C42.1939 45.8958 42.7817 46.6557 43.7058 47.2091C44.2751 47.5507 44.9052 47.7519 45.5089 48.0193C45.7446 48.1226 45.9697 48.2418 46.1656 48.4059C46.7455 48.8852 46.6396 49.6822 45.9511 49.984C45.5831 50.1455 45.1938 50.1853 44.794 50.135C44.1771 50.0582 43.5866 49.8967 43.0306 49.608C42.7049 49.4386 42.6096 49.4836 42.4984 49.8358C42.403 50.1403 42.3183 50.4474 42.2336 50.7545C42.1197 51.1676 42.1621 51.2656 42.5566 51.4589C43.0597 51.7025 43.5972 51.8269 44.1453 51.9143C44.5743 51.9831 44.5875 52.0017 44.5928 52.4465C44.5954 52.6477 44.5954 52.8516 44.5981 53.0529C44.6007 53.307 44.7225 53.4553 44.9847 53.4606C45.2812 53.4659 45.5804 53.4659 45.877 53.458C46.1206 53.4527 46.245 53.3203 46.245 53.074C46.245 52.7987 46.2583 52.5206 46.2477 52.2453C46.2344 51.9646 46.3562 51.8216 46.6263 51.7475C47.2486 51.578 47.7781 51.2444 48.1859 50.7466C49.3192 49.3697 48.8876 47.3547 47.283 46.4677Z" fill="white"/>
    <path d="M59.0625 60.2917H31.9375C30.8675 60.2917 30 61.1592 30 62.2292C30 63.2992 30.8675 64.1667 31.9375 64.1667H59.0625C60.1325 64.1667 61 63.2992 61 62.2292C61 61.1592 60.1325 60.2917 59.0625 60.2917Z" fill="white"/>
    <path d="M31.9375 31.875H59.0625C60.1325 31.875 61 31.0075 61 29.9375C61 28.8675 60.1325 28 59.0625 28H31.9375C30.8675 28 30 28.8675 30 29.9375C30 31.0075 30.8675 31.875 31.9375 31.875Z" fill="white"/>
    <path d="M50.8726 53.3004C50.7931 53.3928 50.7118 53.4821 50.6279 53.5697C50.5588 53.6429 50.4885 53.7138 50.4153 53.7835C50.3283 53.8677 50.2378 53.9491 50.146 54.0282C50.0707 54.0929 49.9944 54.1575 49.9161 54.2222C49.8206 54.2985 49.7225 54.3701 49.6229 54.441C49.5415 54.5 49.4608 54.558 49.3769 54.6129C49.2735 54.6775 49.1678 54.7422 49.0612 54.8065C48.9751 54.857 48.89 54.9081 48.8027 54.9544C48.6917 55.0128 48.5781 55.0651 48.4637 55.1178C48.3747 55.1594 48.2861 55.202 48.195 55.2392C48.0755 55.289 47.9528 55.3303 47.8301 55.3729C47.7396 55.4047 47.6501 55.4375 47.557 55.4672C47.4277 55.5066 47.2934 55.5378 47.1603 55.57C47.0714 55.5914 46.984 55.6166 46.8939 55.6346C46.7437 55.6643 46.5908 55.6844 46.4379 55.7043C46.3609 55.7147 46.2852 55.7302 46.2073 55.7381C45.9746 55.7604 45.7397 55.7734 45.5013 55.7734C45.2629 55.7734 45.0279 55.7604 44.7955 55.7381C44.7173 55.7302 44.6416 55.7147 44.5647 55.7043C44.4117 55.6844 44.2588 55.6643 44.109 55.6346C44.0185 55.6166 43.9312 55.5914 43.8422 55.57C43.7091 55.5378 43.5754 55.5053 43.4455 55.4672C43.3525 55.4394 43.2629 55.4028 43.1724 55.3729C43.0498 55.3303 42.9271 55.289 42.8076 55.2392C42.7164 55.202 42.6281 55.1594 42.5389 55.1178C42.4244 55.0651 42.3109 55.0128 42.1999 54.9544C42.1113 54.9081 42.0261 54.857 41.9416 54.8065C41.835 54.7422 41.7291 54.682 41.6256 54.6129C41.5418 54.558 41.461 54.5 41.3797 54.441C41.28 54.3701 41.1819 54.2985 41.0864 54.2222C41.0082 54.1575 40.9319 54.0929 40.8565 54.0282C40.7647 53.9491 40.6742 53.8677 40.5872 53.7835C40.514 53.7138 40.4437 53.6429 40.3747 53.5697C40.2908 53.4821 40.2094 53.3928 40.1299 53.3004C40.064 53.225 39.9994 53.1481 39.936 53.0693C39.8606 52.9737 39.7881 52.8756 39.7172 52.7766C39.6591 52.6953 39.6017 52.6133 39.5469 52.5288C39.4822 52.426 39.4176 52.3209 39.3529 52.2144C39.3031 52.1276 39.253 52.0419 39.2063 51.9526C39.1483 51.8429 39.0959 51.73 39.0442 51.6161C39.0023 51.5256 38.9603 51.4367 38.9222 51.3443C38.8745 51.2261 38.8323 51.1059 38.7932 50.9851C38.7607 50.8921 38.7285 50.8006 38.6979 50.7064C38.6601 50.5771 38.6295 50.4478 38.5986 50.3188C38.5765 50.2258 38.5516 50.1334 38.534 50.0391C38.5068 49.9016 38.4889 49.7613 38.4693 49.6206C38.4573 49.5307 38.4409 49.4431 38.4321 49.3519C38.4321 49.3377 38.4274 49.3242 38.4261 49.31H32.5833V59H58.4167V49.3125H52.5752C52.5752 49.3267 52.5708 49.3403 52.5692 49.3545C52.5603 49.4456 52.5443 49.5333 52.532 49.6231C52.513 49.7641 52.4951 49.9041 52.4673 50.0416C52.4484 50.1359 52.4235 50.2283 52.4027 50.3213C52.3718 50.4506 52.3412 50.5796 52.3033 50.7089C52.275 50.8032 52.2387 50.8949 52.2084 50.988C52.1671 51.1084 52.1248 51.2286 52.0791 51.3468C52.041 51.4392 51.999 51.5285 51.9571 51.6187C51.9054 51.7325 51.853 51.8454 51.795 51.9551C51.7483 52.0444 51.6982 52.1302 51.6484 52.2169C51.5837 52.3235 51.5238 52.4288 51.4547 52.5313C51.3995 52.6161 51.3422 52.6981 51.2841 52.7795C51.2132 52.8788 51.1406 52.9731 51.0653 53.0718C51.0028 53.149 50.9385 53.225 50.8726 53.3004Z" fill="white"/>
    <path d="M31.9375 48.0208H38.4469C38.4526 47.9839 38.4662 47.9401 38.4728 47.9026C38.504 47.7184 38.5472 47.526 38.6018 47.3252C38.6194 47.2608 38.6349 47.1962 38.6541 47.1277C38.7298 46.8692 38.8181 46.598 38.9281 46.3107C38.9401 46.2798 38.9559 46.246 38.9688 46.2132C39.07 45.9547 39.1883 45.6797 39.3182 45.3968C39.3586 45.3082 39.4002 45.2186 39.4434 45.1288C39.5724 44.8563 39.7149 44.5734 39.871 44.2802C39.8953 44.2338 39.9136 44.1931 39.9388 44.1458H31.9375C30.8675 44.1458 30 45.0133 30 46.0833C30 47.1533 30.8675 48.0208 31.9375 48.0208Z" fill="white"/>
    <path d="M59.0625 44.1458H51.064C51.087 44.1884 51.1031 44.2259 51.1283 44.2679C51.2866 44.5668 51.4307 44.8544 51.5632 45.1319C51.6051 45.2205 51.6464 45.3082 51.6859 45.3943C51.8148 45.679 51.935 45.9534 52.0378 46.2151C52.0501 46.246 52.0649 46.2798 52.0772 46.3107C52.187 46.598 52.2756 46.8679 52.3509 47.1277C52.3705 47.1921 52.3859 47.2567 52.4033 47.3214C52.4563 47.5222 52.4982 47.7152 52.5326 47.9026C52.5389 47.9401 52.5524 47.9839 52.5584 48.0208H59.0625C60.1325 48.0208 61 47.1533 61 46.0833C61 45.0133 60.1325 44.1458 59.0625 44.1458Z" fill="white"/>
    <path d="M58.4167 33.1667H32.5833V42.8542H40.6686C40.6995 42.8012 40.7332 42.7495 40.7641 42.6965C40.819 42.6047 40.8745 42.5139 40.93 42.4222L41.1309 42.0992C41.1864 42.0113 41.2412 41.9236 41.297 41.8362C41.3661 41.7265 41.4358 41.618 41.5055 41.5095C41.5597 41.425 41.614 41.3418 41.6682 41.2576C41.7385 41.1497 41.8092 41.0438 41.8795 40.9381C41.9337 40.8552 41.9883 40.7735 42.0428 40.6925L42.25 40.385L42.4115 40.1488L42.6171 39.8511C42.6694 39.7767 42.7202 39.7026 42.7719 39.6294C42.8366 39.5339 42.9044 39.4415 42.9697 39.3494L43.1226 39.1334L43.3049 38.8811L43.4553 38.673C43.5121 38.5948 43.5657 38.5213 43.6205 38.4469L43.7672 38.2476L43.9138 38.0536L44.0532 37.8663L44.1683 37.714L44.3137 37.5204L44.3944 37.4151L44.5325 37.234L44.6016 37.1451L44.7161 36.9979L44.7476 36.9565C44.8876 36.7774 44.9781 36.6639 44.9964 36.6418C45.1229 36.4961 45.3067 36.4123 45.5 36.4123C45.6933 36.4123 45.8772 36.4961 46.0036 36.6418C46.0219 36.6639 46.1124 36.7774 46.2524 36.9565L46.284 36.9979L46.3912 37.1353L46.4681 37.2353L46.6173 37.4292L46.6819 37.5163L46.8409 37.7269C46.8743 37.7714 46.9052 37.8133 46.9415 37.8606C46.9907 37.9253 47.0424 37.995 47.0932 38.064L47.2281 38.2447L47.3871 38.4614C47.4375 38.5298 47.4867 38.597 47.5381 38.6686C47.5898 38.7402 47.6501 38.8221 47.7068 38.901C47.7636 38.9798 47.814 39.0489 47.8689 39.1258L48.0433 39.3718L48.2183 39.62C48.277 39.7039 48.3372 39.789 48.3965 39.8782C48.4561 39.9672 48.5166 40.0514 48.5775 40.1397C48.638 40.2283 48.7002 40.3188 48.7613 40.409L48.9461 40.6818L49.1353 40.9665L49.3157 41.2402C49.3807 41.3396 49.4453 41.4398 49.5093 41.5404C49.5686 41.6322 49.6276 41.7243 49.6863 41.817C49.7509 41.9211 49.8156 42.0242 49.8802 42.1289L50.0486 42.4013C50.1132 42.5105 50.1779 42.6193 50.247 42.729C50.2734 42.7728 50.3006 42.816 50.3264 42.858H58.4167V33.1667Z" fill="white"/>
</svg>
