<svg width="104" height="104" viewBox="0 0 104 104" fill="none" xmlns="http://www.w3.org/2000/svg">
    <rect y="52" width="73.5391" height="73.5391" transform="rotate(-45 0 52)" fill="#E60013"/>
    <path d="M49.6997 59.2148C49.6798 59.0034 49.6471 58.7931 49.602 58.5851C49.5859 58.5081 49.5645 58.4383 49.5453 58.3651C49.5074 58.2205 49.4684 58.0775 49.4147 57.9363C49.3869 57.8593 49.3606 57.7824 49.3298 57.7054C49.2529 57.5124 49.1646 57.3243 49.0655 57.1418C49.0295 57.0765 48.9885 57.0142 48.9495 56.9503C48.8785 56.8336 48.8049 56.7198 48.7265 56.6075C48.6724 56.5306 48.6179 56.4589 48.5609 56.3875C48.4786 56.2835 48.3927 56.1851 48.3041 56.089C48.2511 56.0316 48.2012 55.9708 48.1464 55.9152C48.0089 55.7796 47.8644 55.6512 47.7135 55.5307C47.6538 55.4823 47.5907 55.438 47.5283 55.3925C47.4123 55.3069 47.2974 55.2262 47.1732 55.1511C47.1146 55.1147 47.0568 55.0787 46.9978 55.0441C46.6276 54.8342 46.2341 54.6686 45.8252 54.5504C45.7727 54.5357 45.7197 54.5237 45.6668 54.5098C45.5046 54.4681 45.3398 54.4329 45.1738 54.4088C45.116 54.4006 45.0585 54.3897 45 54.3829C44.7818 54.3548 44.5625 54.3401 44.3425 54.339C43.8871 54.3397 43.4332 54.3968 42.9916 54.5083C40.6112 55.12 38.9475 57.2665 38.949 59.7243C38.9501 62.1817 40.616 64.3263 42.9969 64.9357C43.2037 64.9871 43.4136 65.0266 43.625 65.0544L43.7174 65.0652C43.898 65.0855 44.0797 65.0968 44.2618 65.099H44.4225C44.5494 65.099 44.6741 65.0904 44.7976 65.0795C44.8915 65.0712 44.9861 65.0596 45.0822 65.0457C45.1167 65.0412 45.1513 65.0352 45.1854 65.0296C45.6694 64.9507 46.141 64.808 46.5878 64.6053L46.6516 64.5745C46.7455 64.5313 46.8394 64.4844 46.9347 64.4345C48.3566 63.6494 49.3493 62.2654 49.6366 60.6667C49.6681 60.4797 49.6921 60.2938 49.706 60.1076C49.706 60.0445 49.7128 59.9807 49.7151 59.9169C49.7222 59.7385 49.7192 59.5609 49.7083 59.3841C49.7045 59.3278 49.7045 59.2711 49.6997 59.2148Z" fill="white"/>
    <path d="M57.4168 62.0275C57.8415 62.0275 58.1858 61.6832 58.1858 61.2586V58.1827C58.1858 57.7581 57.8415 57.4138 57.4168 57.4138H56.5709C55.6146 57.4104 54.7589 56.8187 54.418 55.9251C54.3365 55.7114 54.2479 55.4989 54.1533 55.2905C53.7579 54.418 53.9415 53.3918 54.6147 52.71L55.217 52.1074C55.517 51.807 55.517 51.3204 55.217 51.02L53.0438 48.8468C52.7423 48.5487 52.2572 48.5487 51.9557 48.8468L51.3538 49.4483C50.6724 50.1223 49.6458 50.3055 48.7729 49.9098C48.5645 49.8151 48.3524 49.7273 48.1372 49.6451C47.2459 49.303 46.6556 48.4492 46.6515 47.4944V46.6485C46.6515 46.2238 46.3072 45.8795 45.8826 45.8795H42.8068C42.3821 45.8795 42.0378 46.2238 42.0378 46.6485V47.4944C42.0344 48.4507 41.4427 49.3064 40.5491 49.6473C40.3354 49.7288 40.1229 49.8174 39.9146 49.912C39.042 50.3081 38.0154 50.1245 37.334 49.4506L36.7314 48.8483C36.431 48.5483 35.9444 48.5483 35.644 48.8483L33.4708 51.02C33.3266 51.1642 33.2455 51.3598 33.2455 51.5641C33.2455 51.7679 33.3266 51.9639 33.4708 52.1081L34.0723 52.71C34.7455 53.3918 34.9291 54.418 34.5338 55.2905C34.4391 55.4993 34.3513 55.7114 34.2691 55.9266C33.9278 56.8187 33.0736 57.4093 32.1184 57.4138H31.2725C30.8478 57.4138 30.5035 57.7581 30.5035 58.1827V61.2586C30.5035 61.6832 30.8478 62.0275 31.2725 62.0275H32.1184C33.0747 62.0309 33.9304 62.6226 34.2713 63.5162C34.3528 63.7299 34.4414 63.9424 34.536 64.1508C34.9314 65.0233 34.7478 66.0495 34.0746 66.7313L33.4723 67.334C33.1723 67.6343 33.1723 68.1209 33.4723 68.4213L35.6455 70.5945C35.7897 70.7387 35.9853 70.8198 36.1896 70.8198C36.3934 70.8198 36.5894 70.7387 36.7336 70.5945L37.3355 69.993C38.0173 69.3202 39.0435 69.1366 39.9164 69.5315C40.1248 69.6265 40.3369 69.7148 40.5521 69.7962C41.4434 70.1383 42.0337 70.9921 42.0378 71.9469V72.7928C42.0378 73.2175 42.3821 73.5618 42.8068 73.5618H45.8826C46.3072 73.5618 46.6515 73.2175 46.6515 72.7928V71.9469C46.6549 70.9906 47.2466 70.1349 48.1402 69.794C48.3539 69.7125 48.5664 69.6239 48.7748 69.5293C49.6474 69.1332 50.6739 69.3168 51.3553 69.9907L51.958 70.593C52.2583 70.893 52.7449 70.893 53.0453 70.593L55.2185 68.4198C55.3627 68.2756 55.4438 68.08 55.4438 67.8757C55.4438 67.6719 55.3627 67.4759 55.2185 67.3317L54.617 66.7298C53.9438 66.048 53.7602 65.0218 54.1556 64.1489C54.2505 63.9405 54.3388 63.7284 54.4203 63.5132C54.7623 62.6219 55.6161 62.0316 56.5709 62.0275H57.4168ZM51.2592 59.8498C51.2592 59.9884 51.2483 60.1265 51.2374 60.2658C51.2262 60.4198 51.2067 60.5658 51.1853 60.7141C51.0216 61.8356 50.6273 62.9114 50.0273 63.8729C49.9132 64.0588 49.7746 64.2285 49.6151 64.3775C49.0248 64.9377 48.3618 65.4165 47.6442 65.8009H47.6397C47.5098 65.87 47.3814 65.9286 47.2553 65.9875C47.1558 66.0337 47.0566 66.0814 46.9553 66.1231C46.8539 66.1644 46.739 66.1997 46.6316 66.2414C46.5239 66.283 46.4217 66.3183 46.314 66.3484C46.1754 66.3889 46.041 66.4253 45.9055 66.4535C45.8289 66.4704 45.7587 66.4899 45.6836 66.5042C45.4906 66.5428 45.2991 66.5706 45.1144 66.5913C45.09 66.5913 45.0652 66.5988 45.0374 66.6014C44.8069 66.6243 44.5759 66.639 44.3586 66.639C44.2339 66.639 44.1224 66.6213 44.0026 66.6149C43.8224 66.6067 43.6433 66.6022 43.4642 66.5796C43.1931 66.5436 42.9239 66.4922 42.6584 66.4261C42.6453 66.4261 42.6322 66.4219 42.6198 66.4189C39.5627 65.6301 37.426 62.8734 37.4248 59.7161C37.4237 56.5589 39.5579 53.8003 42.6145 53.0092C42.8601 52.9495 43.109 52.903 43.3598 52.8699C43.4465 52.8579 43.534 52.8478 43.6211 52.8384C43.7863 52.8215 43.9508 52.8125 44.1149 52.8076C44.1915 52.8076 44.2684 52.7933 44.3454 52.7933C45.8323 52.7933 47.2785 53.2758 48.4676 54.1679L48.5938 54.2618C48.6907 54.3384 48.786 54.4168 48.8791 54.4972C48.9561 54.5648 49.0331 54.6357 49.1097 54.7071C49.1728 54.7671 49.2358 54.8253 49.2959 54.8877C49.4104 55.0041 49.5197 55.1253 49.6259 55.2507C49.6489 55.2778 49.6744 55.3037 49.6965 55.3315C49.9571 55.6461 50.1884 55.9837 50.3885 56.3396C50.3987 56.3572 50.4047 56.3764 50.4148 56.394C50.5417 56.6272 50.6551 56.8675 50.7538 57.1138C50.797 57.2193 50.8308 57.3252 50.8706 57.4322C50.9247 57.5861 50.9731 57.742 51.0159 57.9004C51.0501 58.0251 51.0854 58.149 51.112 58.2744C51.153 58.4658 51.1822 58.6588 51.2067 58.8578C51.2292 59.0411 51.2423 59.2247 51.2498 59.4094C51.2543 59.5108 51.2652 59.6106 51.2652 59.7169C51.2652 59.7646 51.26 59.8059 51.2592 59.8498Z" fill="white"/>
    <path d="M63.5856 45.9265C63.6163 46.0035 63.6404 46.0805 63.6685 46.1525C63.6404 46.0771 63.6163 46.0012 63.5856 45.9265Z" fill="white"/>
    <path d="M63.6685 53.2966C63.6404 53.3736 63.6163 53.4506 63.5856 53.5227C63.6163 53.4479 63.6404 53.3721 63.6685 53.2966Z" fill="white"/>
    <path d="M63.164 45.0332C63.2169 45.1323 63.2608 45.2363 63.3108 45.3407C63.2601 45.2326 63.2169 45.1293 63.164 45.0332Z" fill="white"/>
    <path d="M63.9447 52.4695C63.933 52.5089 63.9251 52.5464 63.9139 52.5874C63.9251 52.5479 63.933 52.5089 63.9447 52.4695Z" fill="white"/>
    <path d="M57.0856 40.1179C57.1242 40.1296 57.1625 40.1374 57.2035 40.1487C57.164 40.1374 57.125 40.1296 57.0856 40.1179Z" fill="white"/>
    <path d="M50.5426 40.4802C50.6196 40.4494 50.6965 40.4254 50.7686 40.3972C50.6931 40.4254 50.6173 40.4494 50.5426 40.4802Z" fill="white"/>
    <path d="M63.9139 46.8625C63.9251 46.9012 63.933 46.9395 63.9447 46.9804C63.933 46.941 63.9251 46.902 63.9139 46.8625Z" fill="white"/>
    <path d="M58.7345 40.7544C58.8358 40.8043 58.9398 40.8483 59.042 40.9012C58.9391 40.8483 58.8358 40.8051 58.7345 40.7544Z" fill="white"/>
    <path d="M59.5387 41.2C59.6532 41.2698 59.7692 41.3344 59.8822 41.4083C59.77 41.3336 59.6532 41.2668 59.5387 41.2Z" fill="white"/>
    <path d="M60.3675 41.7637C60.4692 41.8406 60.5759 41.9127 60.675 41.9942C60.5751 41.912 60.47 41.8414 60.3675 41.7637Z" fill="white"/>
    <path d="M62.0706 43.3896C62.1472 43.4888 62.2242 43.5954 62.3011 43.6972C62.2227 43.5947 62.1521 43.4895 62.0706 43.3896Z" fill="white"/>
    <path d="M57.9145 40.397C57.9914 40.4251 58.0684 40.4492 58.1405 40.48C58.0658 40.4492 57.9899 40.4251 57.9145 40.397Z" fill="white"/>
    <path d="M62.6593 44.1816C62.7363 44.2932 62.7979 44.4122 62.8677 44.5252C62.8009 44.4107 62.734 44.2939 62.6593 44.1816Z" fill="white"/>
    <path d="M51.4805 40.1492C51.5192 40.1379 51.5575 40.13 51.5984 40.1184C51.559 40.13 51.5199 40.1379 51.4805 40.1492Z" fill="white"/>
    <path d="M48.0042 41.9925C48.1033 41.9118 48.2092 41.8389 48.3117 41.762C48.2092 41.8404 48.1041 41.911 48.0042 41.9925Z" fill="white"/>
    <path d="M62.3011 55.7531C62.2242 55.8548 62.1528 55.9607 62.0706 56.0606C62.1536 55.9599 62.2242 55.8548 62.3011 55.7531Z" fill="white"/>
    <path d="M48.7962 41.4071C48.9069 41.3301 49.0267 41.2686 49.1382 41.1995C49.0245 41.2655 48.9084 41.3324 48.7962 41.4071Z" fill="white"/>
    <path d="M49.6512 40.9012C49.7504 40.8483 49.8544 40.8043 49.9587 40.7544C49.8506 40.8051 49.7473 40.8483 49.6512 40.9012Z" fill="white"/>
    <path d="M63.3108 54.1147C63.2608 54.2161 63.2169 54.3201 63.164 54.4223C63.2169 54.3194 63.2601 54.2161 63.3108 54.1147Z" fill="white"/>
    <path d="M62.867 54.926C62.7979 55.0398 62.7333 55.1566 62.6593 55.2681C62.734 55.1558 62.8009 55.0398 62.867 54.926Z" fill="white"/>
    <path d="M72.7994 46.6487H70.381C69.3969 46.6525 68.521 46.0266 68.2056 45.0947C67.9889 44.4489 67.7272 43.8192 67.422 43.2098C66.9827 42.3279 67.1573 41.2634 67.8556 40.5677L69.5704 38.8499C69.8704 38.5499 69.8704 38.0637 69.5704 37.7633L66.3065 34.4994C66.0061 34.1991 65.5195 34.1991 65.2191 34.4994L63.5014 36.2142C62.8056 36.9114 61.7423 37.0864 60.86 36.6486C60.2506 36.343 59.6206 36.0809 58.9744 35.8642C58.0421 35.5489 57.4162 34.6721 57.4203 33.6881V31.2697C57.4203 30.845 57.076 30.5007 56.6514 30.5007H52.0377C51.613 30.5007 51.2687 30.845 51.2687 31.2697V33.6881C51.2725 34.6718 50.6466 35.5477 49.7147 35.8635C49.0689 36.0801 48.4392 36.3418 47.8298 36.6471C46.9479 37.0871 45.8831 36.9125 45.1877 36.2134L43.4699 34.4994C43.1696 34.1991 42.683 34.1991 42.3826 34.4994L39.1194 37.7626C38.8191 38.063 38.8191 38.5496 39.1194 38.8499L44.605 44.3419H45.8861H45.9277C46.3148 43.731 46.7669 43.1637 47.2764 42.65C47.5096 42.4169 47.7544 42.1953 48.0101 41.9866C48.1099 41.9051 48.2151 41.8326 48.3176 41.756C48.4775 41.6344 48.6352 41.5112 48.8019 41.3997C48.9142 41.3231 49.0325 41.2616 49.144 41.1921C49.3118 41.09 49.477 40.9852 49.6508 40.8932C49.7507 40.8399 49.854 40.7964 49.9583 40.7464C50.1536 40.6503 50.3492 40.5549 50.5512 40.4716C50.6282 40.4408 50.7051 40.4171 50.7772 40.3886C51.0081 40.2996 51.2451 40.2133 51.4857 40.1419C51.5248 40.1303 51.5623 40.1228 51.6033 40.1111C53.3961 39.5904 55.3005 39.5904 57.0937 40.1111C57.1327 40.1228 57.1703 40.1303 57.2112 40.1419C57.4519 40.2133 57.6865 40.2996 57.9193 40.3886C57.9963 40.4171 58.0733 40.4408 58.1454 40.4716C58.3477 40.5549 58.543 40.6503 58.7382 40.7464C58.84 40.7964 58.9428 40.8399 59.0457 40.8932C59.2196 40.9852 59.3844 41.0892 59.5511 41.1913C59.6656 41.2616 59.7816 41.3254 59.8946 41.3997C60.0617 41.5112 60.2194 41.6306 60.3786 41.7553C60.4807 41.8319 60.5863 41.9036 60.6861 41.9858C61.1971 42.4037 61.6653 42.8719 62.0832 43.3829C62.1647 43.4828 62.2372 43.5883 62.3138 43.6904C62.4347 43.8496 62.5578 44.0073 62.6693 44.1744C62.7459 44.2867 62.8075 44.4049 62.8777 44.518C62.9798 44.6847 63.0838 44.8495 63.1758 45.0233C63.2292 45.1232 63.2727 45.2261 63.3226 45.3308C63.4188 45.5261 63.5141 45.7213 63.5975 45.9237C63.6283 46.0007 63.6519 46.0773 63.6805 46.1497C63.7694 46.3803 63.8558 46.6172 63.9271 46.8579C63.9388 46.8973 63.9463 46.9348 63.9579 46.9754C64.4787 48.7686 64.4787 50.673 63.9579 52.4658C63.9463 52.5052 63.9388 52.5428 63.9271 52.5833C63.8558 52.824 63.7736 53.0587 63.6805 53.2918C63.6519 53.3684 63.6283 53.4454 63.5975 53.5179C63.5141 53.7199 63.4188 53.9155 63.3226 54.1107C63.2727 54.2121 63.2292 54.3153 63.1758 54.4182C63.0838 54.5921 62.9791 54.7573 62.877 54.9251C62.8075 55.0389 62.7437 55.1556 62.6693 55.2671C62.5578 55.4338 62.4384 55.5915 62.313 55.7515C62.2364 55.8532 62.1655 55.9584 62.0825 56.059C61.8737 56.3147 61.6522 56.5595 61.419 56.7927C60.9054 57.3022 60.3381 57.7542 59.7272 58.1413C59.7272 58.156 59.7309 58.1691 59.7309 58.183V59.4641L65.2191 64.9496C65.5191 65.2496 66.0053 65.2496 66.3057 64.9496L69.5696 61.6865C69.87 61.3861 69.87 60.8995 69.5696 60.5991L67.8549 58.8814C67.1569 58.186 66.9819 57.1219 67.4205 56.24C67.7261 55.6306 67.9882 55.0006 68.2048 54.3544C68.5202 53.4221 69.3969 52.7962 70.381 52.8003H72.7994C73.224 52.8003 73.5683 52.456 73.5683 52.0314V47.4177C73.5683 46.993 73.224 46.6487 72.7994 46.6487Z" fill="white"/>
    <path d="M58.1402 40.4792C58.3411 40.5615 58.5371 40.6583 58.7331 40.7537C58.5379 40.6576 58.3419 40.5622 58.1402 40.4792Z" fill="white"/>
    <path d="M59.0348 40.9011C59.2071 40.9927 59.3731 41.0971 59.5402 41.1996C59.3731 41.0971 59.2086 40.9935 59.0348 40.9011Z" fill="white"/>
    <path d="M50.7726 40.397C51.0031 40.3076 51.2416 40.2209 51.4807 40.1499C51.2401 40.2216 51.0058 40.3076 50.7726 40.397Z" fill="white"/>
    <path d="M57.2066 40.1499C57.4458 40.2209 57.68 40.3076 57.9147 40.397C57.6816 40.3076 57.4473 40.2216 57.2066 40.1499Z" fill="white"/>
    <path d="M49.1396 41.2009C49.3074 41.0984 49.4741 40.9932 49.6465 40.9016C49.4726 40.994 49.3074 41.0984 49.1396 41.2009Z" fill="white"/>
    <path d="M48.3126 41.7639C48.4725 41.6422 48.6317 41.5187 48.7969 41.408C48.6302 41.5195 48.4725 41.6422 48.3126 41.7639Z" fill="white"/>
    <path d="M49.9526 40.7538C50.1486 40.6585 50.3446 40.5616 50.5455 40.4794C50.3438 40.5623 50.1478 40.6577 49.9526 40.7538Z" fill="white"/>
    <path d="M47.277 42.6567C47.512 42.4206 47.7583 42.2006 48.0106 41.9929C47.7549 42.2017 47.5101 42.4232 47.277 42.6567Z" fill="white"/>
    <path d="M62.6563 55.2673C62.5456 55.4325 62.4258 55.5917 62.3004 55.7517C62.4221 55.5917 62.5448 55.434 62.6563 55.2673Z" fill="white"/>
    <path d="M63.5856 53.5208C63.5034 53.7216 63.4065 53.9176 63.3111 54.1136C63.4073 53.9184 63.5026 53.7224 63.5856 53.5208Z" fill="white"/>
    <path d="M63.1618 54.4143C63.0702 54.5867 62.9651 54.7534 62.8626 54.9208C62.9651 54.7571 63.0695 54.5919 63.1618 54.4143Z" fill="white"/>
    <path d="M59.8824 41.408C60.0476 41.5187 60.2061 41.6385 60.366 41.7631C60.2068 41.6422 60.0491 41.5195 59.8824 41.408Z" fill="white"/>
    <path d="M63.9489 52.4699C64.4697 50.6771 64.4697 48.7727 63.9489 46.9799C64.4573 48.7746 64.4573 50.6752 63.9489 52.4699Z" fill="white"/>
    <path d="M57.0827 40.1182C55.2898 39.5975 53.3855 39.5975 51.5926 40.1182C53.3874 39.6099 55.288 39.6099 57.0827 40.1182Z" fill="white"/>
    <path d="M62.0775 56.0593C61.8699 56.3116 61.6498 56.5579 61.4137 56.793C61.6472 56.5598 61.8687 56.315 62.0775 56.0593Z" fill="white"/>
    <path d="M61.4137 42.657C61.6498 42.892 61.8699 43.1383 62.0775 43.3906C61.8687 43.1349 61.6472 42.8901 61.4137 42.657Z" fill="white"/>
    <path d="M62.3004 43.698C62.4213 43.8579 62.5448 44.0164 62.6556 44.1816C62.5441 44.0149 62.4213 43.8572 62.3004 43.698Z" fill="white"/>
    <path d="M60.6759 41.9932C60.9282 42.2008 61.1745 42.4208 61.4095 42.657C61.1764 42.4234 60.9316 42.2019 60.6759 41.9932Z" fill="white"/>
    <path d="M63.6686 46.1528C63.7579 46.3834 63.8447 46.6218 63.9156 46.861C63.8439 46.6203 63.7579 46.386 63.6686 46.1528Z" fill="white"/>
    <path d="M62.8707 44.5251C62.9732 44.6922 63.0776 44.8582 63.1692 45.0305C63.0768 44.8567 62.9732 44.6922 62.8707 44.5251Z" fill="white"/>
    <path d="M63.9156 52.5868C63.8447 52.826 63.7617 53.0603 63.6686 53.2949C63.7579 53.0618 63.8439 52.8275 63.9156 52.5868Z" fill="white"/>
    <path d="M63.3111 45.3346C63.4065 45.5306 63.5034 45.7266 63.5856 45.9275C63.5026 45.7258 63.4073 45.5298 63.3111 45.3346Z" fill="white"/>
</svg>
