<svg width="41" height="25" viewBox="0 0 41 25" fill="none" xmlns="http://www.w3.org/2000/svg">
    <circle cx="28.5" cy="12.5" r="11.5" stroke="#E60013" stroke-width="2"/>
    <path fill-rule="evenodd" clip-rule="evenodd" d="M32.9998 12.5161L27.0128 9.00763L27.0002 9V16.0002L32.9998 12.5161ZM1 11.9999V13.0003H27V11.9999H1Z" fill="#E60013"/>
    <path d="M27.0128 9.00763L26.7538 9.43537L26.76 9.43902L27.0128 9.00763ZM32.9998 12.5161L33.2509 12.9484L33.992 12.518L33.2526 12.0847L32.9998 12.5161ZM27.0002 9L27.2592 8.57231L26.5002 8.11269V9H27.0002ZM27.0002 16.0002H26.5002V16.8687L27.2513 16.4326L27.0002 16.0002ZM1 13.0003H0.5V13.5003H1V13.0003ZM1 11.9999V11.4999H0.5V11.9999H1ZM27 13.0003V13.5003H27.5V13.0003H27ZM27 11.9999H27.5V11.4999H27V11.9999ZM26.76 9.43902L32.747 12.9475L33.2526 12.0847L27.2656 8.57624L26.76 9.43902ZM26.7412 9.42769L26.7538 9.43532L27.2718 8.57994L27.2592 8.57231L26.7412 9.42769ZM27.5002 16.0002V9H26.5002V16.0002H27.5002ZM32.7487 12.0837L26.7491 15.5678L27.2513 16.4326L33.2509 12.9484L32.7487 12.0837ZM1.5 13.0003V11.9999H0.5V13.0003H1.5ZM27 12.5003H1V13.5003H27V12.5003ZM26.5 11.9999V13.0003H27.5V11.9999H26.5ZM1 12.4999H27V11.4999H1V12.4999Z" fill="#E60013"/>
</svg>
