<svg width="104" height="104" viewBox="0 0 104 104" fill="none" xmlns="http://www.w3.org/2000/svg">
    <rect y="52" width="73.5391" height="73.5391" transform="rotate(-45 0 52)" fill="#215FDB"/>
    <path d="M71.7245 70.0284C74.5789 68.0997 73.2044 63.6365 69.7737 63.6365H66.7294C66.0107 63.6365 65.4288 64.2191 65.4288 64.9371V72.249C65.4288 73.9734 68.03 73.9651 68.03 72.249V70.625H68.7671L70.9983 73.1168C72.1336 74.3847 74.0995 72.6809 72.9361 71.3817L71.7245 70.0284ZM68.03 66.2376H69.7737C70.9537 66.2376 70.9542 68.0237 69.7737 68.0237H68.03V66.2376Z" fill="white"/>
    <path d="M36.2984 69.2216C39.8859 68.564 39.4058 63.2246 35.7569 63.2246H32.0809C30.3624 63.2246 30.3606 65.8257 32.0809 65.8257H35.7569C36.2567 65.8257 36.3216 66.5728 35.8296 66.6631C29.9664 67.7374 29.9045 72.8976 32.0809 72.8976H37.4696C39.1881 72.8976 39.1899 70.2964 37.4696 70.2964H33.8016C34.4206 69.441 35.1861 69.4254 36.2984 69.2216Z" fill="white"/>
    <path d="M32.8118 33.1023H33.4751V38.9133C33.4751 40.6374 36.0762 40.6297 36.0762 38.9133V31.8018C36.0762 31.0831 35.4935 30.5012 34.7756 30.5012H32.8117C31.0868 30.5012 31.0966 33.1023 32.8118 33.1023Z" fill="white"/>
    <path d="M52.9836 37.573H49.3628C47.6442 37.573 47.6425 40.1742 49.3628 40.1742H52.9836C55.4681 40.1742 56.9203 37.3598 55.4893 35.3377C56.9178 33.319 55.4717 30.5012 52.9836 30.5012H49.3628C47.6442 30.5012 47.6425 33.1023 49.3628 33.1023H52.9836C53.6012 33.1023 53.6015 34.0371 52.9836 34.0371H50.7779C49.0593 34.0371 49.0575 36.6382 50.7779 36.6382H52.9836C53.6013 36.6383 53.6015 37.573 52.9836 37.573Z" fill="white"/>
    <path d="M55.1955 67.2901H54.4433V64.7663C54.4433 63.0477 51.8422 63.0459 51.8422 64.7663V67.2901H50.1513V64.7663C50.1513 63.0477 47.5501 63.0459 47.5501 64.7663V68.5907C47.5501 69.3089 48.1324 69.8913 48.8507 69.8913H51.8423V71.838C51.8423 73.5565 54.4434 73.5583 54.4434 71.838V69.8913H55.1956C56.914 69.8912 56.9158 67.2901 55.1955 67.2901Z" fill="white"/>
    <path d="M69.9446 37.573H66.9833C65.2648 37.573 65.263 40.1742 66.9833 40.1742H69.9446C74.0125 40.1742 74.014 34.0371 69.9446 34.0371H68.4461L68.5563 33.1023H71.7226C73.4411 33.1023 73.4429 30.5012 71.7226 30.5012H67.3999C66.7404 30.5012 66.1855 30.9947 66.1084 31.6495L65.6917 35.1854C65.6006 35.9579 66.2048 36.6382 66.9833 36.6382H69.9445C70.5757 36.6383 70.5755 37.573 69.9446 37.573Z" fill="white"/>
    <path d="M68.0113 60.586C68.0113 62.3046 70.6124 62.3063 70.6124 60.586V43.4641C70.6124 41.7456 68.0113 41.7438 68.0113 43.4641V50.7245H57.0189C56.5499 48.9227 55.1287 47.5017 53.327 47.0325V43.4637C53.327 41.7456 50.7259 41.7427 50.7259 43.4637V47.0325C48.9241 47.5016 47.5031 48.9226 47.0339 50.7245H36.0415V43.4641C36.0415 41.7456 33.4404 41.7438 33.4404 43.4641V60.586C33.4404 62.3046 36.0415 62.3063 36.0415 60.586V53.3257H47.0339C47.503 55.1274 48.9241 56.5485 50.7259 57.0176V60.5864C50.7259 62.3045 53.327 62.3074 53.327 60.5864V57.0176C55.1287 56.5485 56.5498 55.1274 57.0189 53.3257H68.0113V60.586ZM54.5842 52.0251C54.5842 53.4351 53.4369 54.5828 52.0265 54.5828C50.6164 54.5828 49.4687 53.4355 49.4687 52.0251C49.4687 50.6158 50.6153 49.4673 52.0265 49.4673C53.4358 49.4673 54.5842 50.6139 54.5842 52.0251Z" fill="white"/>
</svg>
