<svg width="16" height="17" viewBox="0 0 16 17" fill="none" xmlns="http://www.w3.org/2000/svg">
    <path d="M15.7567 15.0949L11.8125 10.9927C12.8266 9.78708 13.3823 8.27023 13.3823
                        6.69113C13.3823 3.0017 10.3806 0 6.69113 0C3.0017 0 0 3.0017 0 6.69113C0 10.3806
                        3.0017 13.3823 6.69113 13.3823C8.07619 13.3823 9.39609 12.9645 10.5246 12.1715L14.4988
                        16.3048C14.6649 16.4773 14.8883 16.5725 15.1278 16.5725C15.3544 16.5725 15.5694 16.4861
                        15.7326 16.329C16.0794 15.9953 16.0904 15.442 15.7567 15.0949ZM6.69113 1.74551C9.4182
                        1.74551 11.6367 3.96406 11.6367 6.69113C11.6367 9.4182 9.4182 11.6367 6.69113 11.6367C3.96406
                        11.6367 1.74551 9.4182 1.74551 6.69113C1.74551 3.96406 3.96406 1.74551 6.69113 1.74551Z"
          fill="white" fill-opacity="0.3"></path>
</svg>