<svg width="34" height="9" viewBox="0 0 34 9" fill="none" xmlns="http://www.w3.org/2000/svg">
    <path fill-rule="evenodd" clip-rule="evenodd" d="M1.00023 4.51607L6.9872 1.00763L6.9998 1V8.00018L1.00023 4.51607ZM33 3.99992V5.00026H7.00003V3.99992H33Z" fill="white"/>
    <path d="M6.9872 1.00763L7.24622 1.43537L7.24 1.43902L6.9872 1.00763ZM1.00023 4.51607L0.749138 4.94845L0.00796127 4.51803L0.747437 4.08468L1.00023 4.51607ZM6.9998 1L6.7408 0.572306L7.4998 0.112692V1H6.9998ZM6.9998 8.00018H7.4998V8.86874L6.7487 8.43256L6.9998 8.00018ZM33 5.00026H33.5V5.50026H33V5.00026ZM33 3.99992V3.49992H33.5V3.99992H33ZM7.00003 5.00026V5.50026H6.50003V5.00026H7.00003ZM7.00003 3.99992H6.50003V3.49992H7.00003V3.99992ZM7.24 1.43902L1.25303 4.94746L0.747437 4.08468L6.7344 0.576245L7.24 1.43902ZM7.25879 1.42769L7.24619 1.43532L6.7282 0.579936L6.7408 0.572306L7.25879 1.42769ZM6.4998 8.00018V1H7.4998V8.00018H6.4998ZM1.25133 4.08369L7.25089 7.5678L6.7487 8.43256L0.749138 4.94845L1.25133 4.08369ZM32.5 5.00026V3.99992H33.5V5.00026H32.5ZM7.00003 4.50026H33V5.50026H7.00003V4.50026ZM7.50003 3.99992V5.00026H6.50003V3.99992H7.50003ZM33 4.49992H7.00003V3.49992H33V4.49992Z" fill="white"/>
</svg>
