<svg width="19" height="18" viewBox="0 0 19 18" fill="none" xmlns="http://www.w3.org/2000/svg">
    <path fill-rule="evenodd" clip-rule="evenodd" d="M9.46875 18C4.4984 18 0.46875 13.9702 0.46875 9C0.46875 4.02965 4.4984 0 9.46875 0C14.4395 0 18.4688 4.02965 18.4688 9C18.4688 13.9702 14.4395 18 9.46875 18ZM4.74609 15.0576C4.77622 14.9928 6.26533 11.8311 10.7765 10.2594C10.7871 10.2554 10.7975 10.252 10.8081 10.2486L10.8081 10.2486L10.8274 10.2422C11.9083 13.0516 12.3554 15.4056 12.4693 16.0795C11.5474 16.471 10.5335 16.6876 9.46894 16.6876C7.68655 16.6876 6.04992 16.0758 4.74609 15.0576ZM11.1211 7.15938C11.3007 7.52604 11.4723 7.89836 11.6319 8.27421C11.6889 8.40686 11.7439 8.53932 11.7979 8.67119C14.4525 8.33741 17.0658 8.90382 17.1513 8.92241C17.1331 7.09834 16.4816 5.4263 15.4031 4.11719C15.3877 4.14027 14.1547 5.92071 11.1211 7.15938ZM13.7616 15.3755C13.6841 14.9157 13.2752 12.6594 12.2656 9.88565C14.7506 9.48789 16.9024 10.1705 17.0552 10.2198C16.7136 12.363 15.4872 14.2101 13.7616 15.3755Z" fill="white"/>
    <mask id="mask0" mask-type="alpha" maskUnits="userSpaceOnUse" x="0" y="0" width="19" height="18">
        <path fill-rule="evenodd" clip-rule="evenodd" d="M9.46875 18C4.4984 18 0.46875 13.9702 0.46875 9C0.46875 4.02965 4.4984 0 9.46875 0C14.4395 0 18.4688 4.02965 18.4688 9C18.4688 13.9702 14.4395 18 9.46875 18ZM4.74609 15.0576C4.77622 14.9928 6.26533 11.8311 10.7765 10.2594C10.7871 10.2554 10.7975 10.252 10.8081 10.2486L10.8081 10.2486L10.8274 10.2422C11.9083 13.0516 12.3554 15.4056 12.4693 16.0795C11.5474 16.471 10.5335 16.6876 9.46894 16.6876C7.68655 16.6876 6.04992 16.0758 4.74609 15.0576ZM11.1211 7.15938C11.3007 7.52604 11.4723 7.89836 11.6319 8.27421C11.6889 8.40686 11.7439 8.53932 11.7979 8.67119C14.4525 8.33741 17.0658 8.90382 17.1513 8.92241C17.1331 7.09834 16.4816 5.4263 15.4031 4.11719C15.3877 4.14027 14.1547 5.92071 11.1211 7.15938ZM13.7616 15.3755C13.6841 14.9157 13.2752 12.6594 12.2656 9.88565C14.7506 9.48789 16.9024 10.1705 17.0552 10.2198C16.7136 12.363 15.4872 14.2101 13.7616 15.3755Z" fill="white"/>
    </mask>
    <g mask="url(#mask0)">
    </g>
</svg>
