<svg width="157" height="283" viewBox="0 0 157 283" fill="none" xmlns="http://www.w3.org/2000/svg">
    <path d="M193.766 180.302H103.219C98.5379 180.302 93.5949 180.527 91.1982 181.275C90.2246 181.5 89.4008 181.163 88.914 180.19C88.4271 179.217 87.9403 177.907 87.6033 176.597C87.491 176.223 87.491 175.999 87.491 175.774C87.491 175.55 87.6033 175.4 87.9778 175.4C88.2025 175.4 88.4646 175.4 88.9514 175.512C92.5463 176.597 98.8374 177.084 103.294 177.084H131.604C131.828 168.289 132.091 156.389 132.091 145.311H116.325C111.644 145.311 106.701 145.536 104.305 146.284C103.331 146.509 102.507 146.172 102.02 145.199C101.534 144.226 101.047 142.916 100.71 141.606C100.597 141.232 100.597 141.007 100.597 140.745C100.597 140.521 100.71 140.371 101.084 140.371C101.309 140.371 101.571 140.371 102.058 140.483C105.653 141.569 111.944 142.055 116.4 142.055H132.165C132.165 133.523 132.053 125.813 131.791 120.536H112.768C108.087 120.536 103.144 120.761 100.747 121.51C99.7736 121.734 98.9498 121.397 98.463 120.424C98.0885 119.601 97.6392 118.628 97.377 117.543C97.1523 117.543 97.0025 117.543 96.7779 117.543C92.434 117.543 88.9514 114.062 88.9514 109.721C88.9514 108.299 89.3259 106.839 90.2621 105.268C94.2315 98.9055 99.886 102.012 101.234 89.6243C101.346 88.4268 101.721 87.8281 102.208 87.8281C102.582 87.8281 103.181 88.3145 103.631 89.3998C104.23 90.8593 104.941 92.768 105.578 94.8263H132.652C132.877 90.1483 132.765 85.9194 132.278 83.1501C132.016 81.5783 131.791 80.4929 131.791 80.0438C131.791 79.445 132.016 79.3328 132.652 79.3328C133.027 79.3328 133.364 79.445 133.963 79.445C138.906 79.9315 144.673 80.5304 150.814 81.5034C152.499 81.728 153.361 82.5887 153.361 83.5243C153.361 84.4974 152.649 85.4329 151.076 85.9194C149.391 86.5182 147.931 86.7428 147.818 88.3146C147.706 89.7741 147.706 92.6557 147.706 94.8263C147.818 94.8263 172.384 94.8263 172.384 94.8263C173.694 94.8263 174.069 94.714 175.042 93.8532C176.353 92.6557 179.012 90.3728 180.322 89.2875C180.809 88.801 181.296 88.6887 181.671 88.6887C182.27 88.6887 182.757 89.063 183.468 89.5121C186.838 92.1692 191.182 95.9864 193.953 98.7932C195.152 99.9908 195.751 101.45 195.751 102.648C195.751 104.444 194.44 106.016 191.781 106.016C191.182 106.016 190.471 106.016 189.609 105.791C187.924 105.305 186.351 105.193 184.928 105.193C180.472 105.193 176.99 107.251 170.249 110.844C169.875 111.068 169.538 111.068 169.276 111.068C168.676 111.068 168.19 110.694 168.19 110.245C168.19 110.02 168.302 109.758 168.564 109.422C171.56 105.193 173.619 102.087 175.679 98.1196H106.215C106.589 99.916 106.814 101.862 106.814 103.771C106.814 108.224 105.615 112.528 101.983 115.447C101.496 115.821 101.122 116.158 100.672 116.42C104.267 117.019 108.986 117.393 112.581 117.393H164.595C165.793 117.393 166.28 117.168 167.104 116.308C169.051 114.399 171.335 111.854 173.47 109.571C173.956 109.085 174.294 108.973 174.78 108.973C175.155 108.973 175.642 109.085 176.091 109.459C179.461 111.63 183.805 114.885 187.512 117.879C187.887 118.254 188.374 118.852 188.374 119.451C188.374 120.05 187.887 120.649 186.464 120.649H147.893C147.781 125.925 147.669 133.747 147.519 142.167H159.577C160.775 142.167 161.262 142.055 162.086 141.082C163.883 138.912 166.654 135.543 168.714 133.148C169.088 132.662 169.425 132.437 169.8 132.437C170.137 132.437 170.624 132.662 171.223 133.148C174.968 135.918 178.45 138.799 182.532 142.654C182.906 143.028 183.356 143.627 183.356 144.226C183.356 144.825 182.869 145.423 181.446 145.423H147.519C147.519 156.613 147.519 168.664 147.743 177.196H170.624C171.597 177.196 172.533 176.822 173.133 176.111C175.305 173.454 178.3 169.973 180.472 167.691C180.959 167.204 181.184 166.942 181.671 166.942C182.045 166.942 182.382 167.204 183.019 167.691C186.876 170.684 190.845 173.828 194.815 177.683C195.414 178.281 195.638 178.88 195.638 179.367C195.676 179.816 195.077 180.302 193.766 180.302ZM168.602 171.77C166.317 171.77 164.033 170.572 162.685 167.803C160.026 162.489 162.086 157.923 155.083 152.758C154.596 152.384 154.259 151.785 154.259 151.449C154.259 151.074 154.634 150.738 155.458 150.738C155.57 150.738 155.832 150.738 155.944 150.738C164.37 151.711 172.683 154.48 175.342 161.815C175.717 162.788 175.829 163.724 175.829 164.584C175.791 168.738 172.196 171.77 168.602 171.77Z" fill="white"/>
    <path d="M141.608 282.216L0.768776 141.464L141.608 0.713379L282.446 141.464L141.608 282.216ZM13.9502 141.464L141.645 269.08L269.34 141.464L141.645 13.8491L13.9502 141.464Z" fill="white"/>
    <path d="M138.625 27.2754H132.82V33.0797H138.625V27.2754Z" fill="white"/>
    <path d="M132.805 33.1587H127V38.9631H132.805V33.1587Z" fill="white"/>
    <path d="M126.921 39.0247H121.116V44.8289H126.921V39.0247Z" fill="white"/>
    <path d="M121.09 44.8643H115.286V50.6686H121.09V44.8643Z" fill="white"/>
    <path d="M115.187 50.7012H109.383V56.5056H115.187V50.7012Z" fill="white"/>
    <path d="M109.375 56.5781H103.57V62.3824H109.375V56.5781Z" fill="white"/>
    <path d="M103.472 62.4141H97.668V68.2183H103.472V62.4141Z" fill="white"/>
    <path d="M97.6364 68.291H91.8321V74.0953H97.6364V68.291Z" fill="white"/>
    <path d="M91.7686 74.1323H85.9643V79.9366H91.7686V74.1323Z" fill="white"/>
    <path d="M85.9137 80.002H80.1094V85.8062H85.9137V80.002Z" fill="white"/>
    <path d="M80.0544 85.8379H74.2501V91.6422H80.0544V85.8379Z" fill="white"/>
    <path d="M74.1989 91.7168H68.3946V97.5211H74.1989V91.7168Z" fill="white"/>
    <path d="M68.3122 97.5511L62.5079 97.5586L62.5153 103.363L68.3197 103.355L68.3122 97.5511Z" fill="white"/>
    <path d="M62.4489 103.428H56.6446V109.232H62.4489V103.428Z" fill="white"/>
    <path d="M56.6364 109.27H50.8321V115.074H56.6364V109.27Z" fill="white"/>
    <path d="M50.734 115.141H44.9297V120.945H50.734V115.141Z" fill="white"/>
    <path d="M44.867 120.983H39.0627V126.788H44.867V120.983Z" fill="white"/>
    <path d="M39.0276 126.858H33.2233V132.662H39.0276V126.858Z" fill="white"/>
    <path d="M33.1881 132.694L27.3838 132.702L27.3913 138.506L33.1956 138.499L33.1881 132.694Z" fill="white"/>
    <path d="M27.3044 138.57L21.5 138.577L21.5072 144.381L27.3115 144.374L27.3044 138.57Z" fill="white"/>
    <path d="M33.1881 144.41H27.3838V150.214H33.1881V144.41Z" fill="white"/>
    <path d="M39.0276 150.287H33.2233V156.091H39.0276V150.287Z" fill="white"/>
    <path d="M44.867 156.121L39.0627 156.128L39.0698 161.933L44.8741 161.926L44.867 156.121Z" fill="white"/>
    <path d="M50.734 162H44.9297V167.804H50.734V162Z" fill="white"/>
    <path d="M56.6364 167.838H50.8321V173.642H56.6364V167.838Z" fill="white"/>
    <path d="M62.4489 173.713H56.6446V179.517H62.4489V173.713Z" fill="white"/>
    <path d="M68.3122 179.551H62.5079V185.355H68.3122V179.551Z" fill="white"/>
    <path d="M74.1989 185.428H68.3946V191.232H74.1989V185.428Z" fill="white"/>
    <path d="M80.0544 191.267H74.2501V197.072H80.0544V191.267Z" fill="white"/>
    <path d="M85.9137 197.104H80.1094V202.908H85.9137V197.104Z" fill="white"/>
    <path d="M91.7686 202.981H85.9643V208.786H91.7686V202.981Z" fill="white"/>
    <path d="M97.6364 208.854H91.8321V214.658H97.6364V208.854Z" fill="white"/>
    <path d="M103.472 214.691H97.668V220.496H103.472V214.691Z" fill="white"/>
    <path d="M109.375 220.527H103.57V226.332H109.375V220.527Z" fill="white"/>
    <path d="M115.187 226.406H109.383V232.211H115.187V226.406Z" fill="white"/>
    <path d="M121.09 232.241H115.286V238.045H121.09V232.241Z" fill="white"/>
    <path d="M126.921 238.12H121.116V243.924H126.921V238.12Z" fill="white"/>
    <path d="M132.797 243.996H126.992V249.8H132.797V243.996Z" fill="white"/>
    <path d="M138.636 249.834H132.832V255.638H138.636V249.834Z" fill="white"/>
    <path d="M144.519 255.672H138.714V261.476H144.519V255.672Z" fill="white"/>
    <path d="M150.34 249.83H144.536V255.634H150.34V249.83Z" fill="white"/>
    <path d="M156.233 243.995H150.429V249.799H156.233V243.995Z" fill="white"/>
    <path d="M162.082 238.12H156.277V243.924H162.082V238.12Z" fill="white"/>
    <path d="M162.082 39.0247H156.277V44.8289H162.082V39.0247Z" fill="white"/>
    <path d="M156.238 33.1567H150.433V38.9611H156.238V33.1567Z" fill="white"/>
    <path d="M150.375 27.2754H144.57V33.0797H150.375V27.2754Z" fill="white"/>
    <path d="M144.519 21.4355H138.714V27.2399H144.519V21.4355Z" fill="white"/>
    <path d="M123.688 196.24C123.5 196.24 123.313 196.24 123.088 196.165C121.328 195.791 119.831 195.604 117.846 195.604C118.071 203.763 118.52 205.671 118.52 207.056C118.52 207.243 118.52 207.467 118.482 207.655C118.258 209.339 117.284 210.574 116.198 210.649C116.161 210.649 116.086 210.649 116.011 210.649C115.187 210.649 114.476 210.125 114.213 209.152C113.914 208.216 112.678 207.393 110.319 206.27C109.982 206.12 109.832 206.008 109.832 205.971C109.832 205.933 109.907 205.896 110.057 205.896C110.169 205.896 110.319 205.896 110.506 205.933C112.191 206.12 113.277 206.233 114.663 206.307C114.7 206.307 114.738 206.307 114.775 206.307C115.262 206.307 115.374 206.158 115.374 205.746C115.374 205.671 115.374 205.671 115.374 205.596C115.299 202.864 115.187 201.667 115.037 198.149C111.892 202.752 108.372 205.409 102.605 207.168C102.38 207.243 102.23 207.28 102.156 207.28C102.118 207.28 102.081 207.243 102.081 207.206C102.081 207.131 102.23 206.981 102.53 206.794C106.35 204.287 110.394 200.245 112.416 196.016C110.806 196.203 109.42 196.502 108.11 196.802C107.099 197.026 106.612 197.513 106.087 197.513C104.927 197.513 103.803 195.567 103.803 194.294C103.803 194.145 103.841 193.958 103.841 193.808C103.916 193.546 103.953 193.434 104.028 193.434C104.065 193.434 104.178 193.546 104.29 193.733C104.777 194.407 105.75 194.594 106.874 194.594C107.099 194.594 107.361 194.594 107.585 194.556C109.533 194.407 111.892 194.107 114.813 193.883C114.738 192.797 114.7 191.6 114.551 190.365C114.476 189.579 113.802 188.793 112.716 188.718C112.453 188.681 112.304 188.606 112.304 188.494C112.304 188.381 112.453 188.232 112.79 188.007C113.24 187.745 113.802 187.633 114.363 187.633C116.011 187.633 117.958 188.531 118.145 189.504C118.183 189.616 118.183 189.729 118.183 189.803C118.183 190.402 117.696 190.402 117.696 191.226C117.696 192.161 117.734 192.723 117.734 193.696C118.745 193.658 119.119 193.621 120.13 193.621C121.029 193.583 121.141 193.172 121.815 193.172C121.853 193.172 121.965 193.209 122.04 193.209C124.025 193.471 124.886 194.407 124.886 195.155C124.961 195.791 124.511 196.24 123.688 196.24Z" fill="white"/>
    <path d="M148.64 191.266C148.415 192.09 148.041 191.715 146.918 192.801C145.869 193.811 144.783 194.822 143.248 196.094C144.146 196.468 144.671 197.179 144.671 197.815C144.671 197.853 144.671 197.853 144.671 197.89C144.671 198.564 144.296 198.564 144.259 199.612C144.221 200.473 144.221 201.296 144.221 202.044C144.221 205.787 144.483 207.508 144.483 209.005C144.483 209.305 144.483 209.567 144.446 209.866C144.371 210.951 143.585 211.662 142.798 211.662C142.012 211.662 141.151 210.989 140.851 209.192C140.814 208.93 140.814 208.706 140.814 208.519C140.814 207.546 141.375 207.508 141.375 201.146C141.375 200.772 141.375 200.398 141.375 200.023C141.375 198.976 141.3 198.489 141.001 198.04C137.893 200.435 134.897 202.157 130.328 203.991C130.179 204.028 130.029 204.065 129.954 204.065C129.879 204.065 129.804 204.028 129.804 203.991C129.804 203.916 129.917 203.803 130.179 203.616C136.245 199.537 141.488 194.447 143.622 191.229C144.184 190.443 144.521 189.769 144.521 189.171C144.521 188.871 144.446 188.572 144.221 188.235C144.072 188.048 143.997 187.898 143.997 187.748C143.997 187.599 144.184 187.487 144.633 187.487C144.671 187.487 144.783 187.487 144.82 187.487C146.88 187.487 148.715 189.732 148.715 191.004C148.678 191.042 148.678 191.191 148.64 191.266Z" fill="white"/>
</svg>
