<svg width="192" height="34" viewBox="0 0 192 34" fill="none" xmlns="http://www.w3.org/2000/svg">
    <path d="M37.1411 11.8695C36.3623 11.9066 35.5835 11.9684 34.8047 12.0425C34.9077 11.6224 34.9572 11.1818 34.9572 10.7164C34.9572 10.5146 34.9407 10.3087 34.9077 10.0987C34.8747 9.88868 34.8377 9.65394 34.8047 9.39038C36.0739 9.50981 37.3431 9.57982 38.604 9.59629C39.8649 9.61276 41.1341 9.621 42.4033 9.621C43.6231 9.621 44.8675 9.61276 46.1408 9.59629C47.41 9.57982 48.7163 9.50981 50.0555 9.39038C50.0226 9.5757 49.9896 9.78573 49.9525 10.0164C49.9195 10.2511 49.9031 10.5146 49.9031 10.807C49.9031 11.0376 49.9195 11.2642 49.9525 11.4824C49.9855 11.7007 50.0184 11.886 50.0555 12.0425C49.2767 11.9642 48.4979 11.9066 47.7191 11.8695C46.9403 11.8325 46.1449 11.8119 45.329 11.8119C45.2961 12.3225 45.2755 12.9073 45.2672 13.5662C45.259 14.2251 45.2549 14.8881 45.2549 15.5553V16.8113C45.2549 17.7091 45.259 18.5574 45.2672 19.3481C45.2755 20.1388 45.2837 20.9048 45.292 21.6502C45.3002 22.3956 45.3208 23.1245 45.3538 23.8369C45.3867 24.5494 45.4279 25.2865 45.4815 26.0484C44.5997 25.9701 43.9115 25.9166 43.4088 25.8836C42.9102 25.8507 42.5393 25.8383 42.3044 25.8383C41.5915 25.8383 40.994 25.8672 40.5119 25.9207C40.0298 25.9742 39.6424 26.0195 39.354 26.0484C39.4034 25.616 39.4488 25.1259 39.4817 24.5823C39.5147 24.0387 39.5435 23.4663 39.5724 22.8609C39.5971 22.2555 39.6136 21.6419 39.6218 21.0242C39.6301 20.4024 39.6342 19.8052 39.6342 19.2328V17.1614V16.1606C39.6342 15.5718 39.6259 14.8923 39.6095 14.1263C39.593 13.3603 39.5683 12.5861 39.5353 11.8119C38.7153 11.8119 37.92 11.8283 37.1411 11.8695Z" fill="#E60013"/>
    <path d="M53.5107 26.0441C53.2223 25.9823 52.938 25.9329 52.6578 25.8917C52.3775 25.8546 52.085 25.834 51.78 25.834C51.4916 25.834 51.2073 25.8546 50.927 25.8917C50.6468 25.9288 50.3872 25.9823 50.1523 26.0441L51.6523 22.9513C51.8913 22.486 52.1509 21.9465 52.4394 21.337C52.7278 20.7234 53.0286 20.0686 53.3418 19.3726C53.655 18.6767 53.9805 17.9477 54.3225 17.1859C54.6604 16.4281 54.9983 15.6663 55.3403 14.9085C55.5258 14.4761 55.7401 13.9737 55.9749 13.4095C56.2139 12.8453 56.4406 12.2853 56.6631 11.7334C56.8815 11.1816 57.0875 10.6874 57.273 10.2468C57.4584 9.80613 57.5944 9.48903 57.6809 9.30371C57.9694 9.36548 58.2661 9.4149 58.571 9.45608C58.8759 9.49314 59.1726 9.51374 59.4611 9.51374C59.766 9.51374 60.0709 9.49314 60.3759 9.45608C60.6808 9.41902 60.9775 9.36548 61.266 9.30371C61.4514 9.86378 61.6904 10.5186 61.9788 11.2681C62.2673 12.0217 62.5764 12.8124 62.906 13.6401C63.2357 14.4679 63.5736 15.2998 63.9238 16.1275C64.27 16.9553 64.5955 17.7295 64.9046 18.4419C65.259 19.2656 65.5762 19.9945 65.8565 20.6287C66.1367 21.2629 66.4045 21.8641 66.6559 22.4324C66.9114 23.0007 67.1751 23.569 67.4553 24.1415C67.7355 24.7139 68.0528 25.3522 68.4072 26.0482C67.9168 25.9535 67.3646 25.8958 66.7548 25.8752C66.1449 25.8505 65.5845 25.8423 65.0776 25.8423C64.5337 25.8423 63.9898 25.8629 63.4376 25.8999C62.8854 25.937 62.3415 25.9905 61.7975 26.0523C61.6286 25.4634 61.4555 24.8992 61.2783 24.3556C61.1011 23.812 60.8992 23.2725 60.6808 22.7289C60.1204 22.7289 59.5641 22.7248 59.0037 22.7166C58.4433 22.7083 57.887 22.7042 57.3265 22.7042C56.8856 22.7042 56.4406 22.7083 55.9914 22.7166C55.5423 22.7248 55.0972 22.7289 54.6563 22.7289C54.4173 23.2725 54.2154 23.8202 54.0464 24.3803C53.8734 24.928 53.6962 25.4881 53.5107 26.0441ZM55.3898 20.6245C55.5752 20.641 55.7607 20.6493 55.9502 20.6493C56.1357 20.6493 56.3211 20.6493 56.5106 20.6493H57.6274H58.7441C58.9295 20.6493 59.1149 20.6493 59.3045 20.6493C59.4899 20.6493 59.6754 20.641 59.8649 20.6245L57.6809 15.205L55.3898 20.6245Z" fill="#E60013"/>
    <path d="M76.1409 20.2173C76.1492 20.7856 76.1615 21.3992 76.178 22.0663C76.1945 22.7335 76.2151 23.413 76.2398 24.1007C76.2646 24.7926 76.2934 25.4391 76.3305 26.0445C75.906 25.9827 75.4116 25.9333 74.8429 25.8921C74.2742 25.8551 73.7797 25.8345 73.3553 25.8345C72.8485 25.8345 72.3334 25.8592 71.8183 25.9045C71.3032 25.9498 70.7881 25.9992 70.2812 26.0445C70.3843 25.1303 70.4543 24.1131 70.4955 22.9971C70.5367 21.881 70.5573 20.7568 70.5573 19.6243V17.3675C70.5573 16.0497 70.5491 14.7401 70.5326 13.4388C70.5161 12.1374 70.4378 10.7867 70.3018 9.39062C70.8458 9.4524 71.3774 9.50181 71.9048 9.543C72.4281 9.58006 72.9638 9.60066 73.5078 9.60066C74.472 9.60066 75.4404 9.53064 76.4047 9.39062C76.3552 9.996 76.3099 10.6178 76.2769 11.2644C76.2439 11.9068 76.2151 12.5452 76.1863 13.1711C76.1615 13.7971 76.145 14.4024 76.1368 14.9872C76.1286 15.5679 76.1244 16.0909 76.1244 16.5562L76.9362 15.7202C77.5955 15.0531 78.1601 14.4766 78.6257 13.9865C79.0914 13.4964 79.5282 13.0228 79.9361 12.5575C80.3441 12.0921 80.7479 11.6144 81.1559 11.1285C81.5638 10.6384 82.0377 10.0619 82.5775 9.39475C83.2739 9.53476 83.9744 9.60478 84.6873 9.60478C84.9923 9.60478 85.2848 9.5883 85.565 9.55947C85.8453 9.52653 86.1378 9.47299 86.4428 9.39475V9.72009C86.1543 9.98365 85.8535 10.2431 85.5403 10.4984C85.2271 10.7537 84.9263 11.0214 84.6379 11.3015C83.1956 12.6357 81.7575 14.0483 80.3152 15.5349C80.6366 16.095 81.0116 16.7086 81.432 17.384C81.8564 18.0594 82.2973 18.743 82.7547 19.4431C83.2121 20.139 83.6613 20.8227 84.1022 21.4898C84.5431 22.1569 84.9428 22.7623 85.2972 23.3059C85.6681 23.833 85.9771 24.2778 86.2244 24.6443C86.4716 25.0067 86.6282 25.2291 86.6941 25.3073C86.7601 25.3856 86.8342 25.468 86.9084 25.5503C86.9826 25.6368 87.0238 25.7027 87.0238 25.748V26.0486C86.8713 26.0321 86.6735 26.0157 86.4263 25.991C86.179 25.9662 85.9194 25.9457 85.6392 25.921C85.359 25.8962 85.0706 25.8798 84.7739 25.8633C84.4772 25.8468 84.1928 25.8386 83.9209 25.8386C83.3975 25.8386 82.8 25.8551 82.1284 25.8839C81.4567 25.9168 80.8715 25.9704 80.3606 26.0486C80.2575 25.8633 80.1339 25.6409 79.9938 25.3856C79.8496 25.1303 79.7012 24.8626 79.5488 24.5826C79.3963 24.3025 79.2356 24.0225 79.0666 23.7342C78.8977 23.4459 78.737 23.1783 78.5845 22.9312L76.1203 18.8624C76.1286 19.2001 76.1327 19.6531 76.1409 20.2173Z" fill="#E60013"/>
    <path d="M90.2061 26.0441C89.9176 25.9823 89.6333 25.9329 89.3531 25.8917C89.0728 25.8546 88.7803 25.834 88.4753 25.834C88.1869 25.834 87.9026 25.8546 87.6223 25.8917C87.3421 25.9288 87.0825 25.9823 86.8477 26.0441L88.3476 22.9513C88.5866 22.486 88.8462 21.9465 89.1347 21.337C89.4231 20.7234 89.7239 20.0686 90.0371 19.3726C90.3503 18.6767 90.6758 17.9477 91.0178 17.1859C91.3557 16.4281 91.6936 15.6663 92.0357 14.9085C92.2211 14.4761 92.4354 13.9737 92.6702 13.4095C92.9092 12.8453 93.1359 12.2853 93.3543 11.7334C93.5727 11.1816 93.7787 10.6874 93.9642 10.2468C94.1496 9.80613 94.2856 9.48903 94.3721 9.30371C94.6606 9.36548 94.9573 9.4149 95.2622 9.45608C95.5671 9.49314 95.8638 9.51374 96.1523 9.51374C96.4572 9.51374 96.7621 9.49314 97.0671 9.45608C97.372 9.41902 97.6687 9.36548 97.9571 9.30371C98.1426 9.86378 98.3816 10.5186 98.67 11.2681C98.9585 12.0217 99.2675 12.8124 99.5972 13.6401C99.9269 14.4679 100.265 15.2998 100.615 16.1275C100.961 16.9553 101.287 17.7295 101.596 18.4419C101.95 19.2656 102.267 19.9945 102.548 20.6287C102.828 21.2629 103.096 21.8641 103.347 22.4324C103.603 23.0007 103.866 23.569 104.146 24.1415C104.427 24.7139 104.744 25.3522 105.098 26.0482C104.608 25.9535 104.056 25.8958 103.446 25.8752C102.836 25.8505 102.276 25.8423 101.769 25.8423C101.225 25.8423 100.681 25.8629 100.129 25.8999C99.5766 25.937 99.0327 25.9905 98.4887 26.0523C98.3198 25.4634 98.1467 24.8992 97.9695 24.3556C97.7923 23.812 97.5904 23.2725 97.372 22.7289C96.8116 22.7289 96.2553 22.7248 95.6949 22.7166C95.1345 22.7083 94.5781 22.7042 94.0177 22.7042C93.5768 22.7042 93.1318 22.7083 92.6826 22.7166C92.2334 22.7248 91.7884 22.7289 91.3475 22.7289C91.1085 23.2725 90.9066 23.8202 90.7376 24.3803C90.5687 24.928 90.3915 25.4881 90.2061 26.0441ZM92.0892 20.6245C92.2747 20.641 92.4601 20.6493 92.6496 20.6493C92.8351 20.6493 93.0205 20.6493 93.2101 20.6493H94.3268H95.4435C95.6289 20.6493 95.8144 20.6493 96.0039 20.6493C96.1894 20.6493 96.3748 20.641 96.5643 20.6245L94.3804 15.205L92.0892 20.6245Z" fill="#E60013"/>
    <path d="M120.263 20.5419C120.679 21.1719 121.104 21.802 121.545 22.4362C121.986 23.0704 122.427 23.7005 122.867 24.3182C123.308 24.9401 123.733 25.5125 124.137 26.0396C123.543 25.9778 122.95 25.9284 122.356 25.8872C121.763 25.8502 121.17 25.8296 120.576 25.8296C119.999 25.8296 119.46 25.8502 118.949 25.8872C118.442 25.9243 117.906 25.9778 117.346 26.0396C116.666 24.8289 115.986 23.6305 115.302 22.4444C114.614 21.2584 113.864 20.06 113.052 18.8493H112.978C112.978 19.8747 112.99 21.0237 113.015 22.3044C113.039 23.5852 113.085 24.8289 113.155 26.0355C112.665 25.9737 112.17 25.9243 111.68 25.8831C111.189 25.8461 110.678 25.8255 110.155 25.8255C109.681 25.8255 109.187 25.8461 108.667 25.8831C108.152 25.9202 107.604 25.9737 107.027 26.0355C107.114 25.2448 107.184 24.3017 107.242 23.2104C107.299 22.1191 107.332 21.0113 107.332 19.8953C107.332 19.3846 107.328 18.7422 107.32 17.9762C107.312 17.2103 107.299 16.3578 107.283 15.4312C107.266 14.5005 107.242 13.5204 107.205 12.4908C107.172 11.4613 107.13 10.4235 107.077 9.38574C107.67 9.46399 108.259 9.51752 108.845 9.55047C109.43 9.58341 109.994 9.59576 110.534 9.59576C111.346 9.59576 112.158 9.56281 112.961 9.49281C113.765 9.4228 114.577 9.38985 115.388 9.38985C116.237 9.38985 117.086 9.44339 117.943 9.55458C118.8 9.66165 119.571 9.8758 120.255 10.1929C120.943 10.51 121.499 10.9589 121.932 11.5437C122.365 12.1243 122.579 12.8985 122.579 13.8581C122.579 15.0359 122.212 15.9501 121.475 16.6008C120.737 17.2514 119.76 17.6962 118.541 17.9268L119.101 18.7875C119.46 19.3311 119.847 19.9159 120.263 20.5419ZM113.221 17.0538C113.295 17.062 113.377 17.0661 113.464 17.0661H113.921C114.972 17.0661 115.706 16.7984 116.118 16.2631C116.534 15.7277 116.74 15.0111 116.74 14.1134C116.74 13.4627 116.641 12.9521 116.447 12.5773C116.254 12.2067 116.011 11.9225 115.722 11.729C115.434 11.5354 115.116 11.416 114.77 11.3666C114.424 11.3213 114.099 11.2966 113.794 11.2966C113.658 11.2966 113.522 11.3007 113.386 11.3089C113.25 11.3172 113.114 11.3295 112.978 11.346V17.0208C113.064 17.0373 113.147 17.0455 113.221 17.0538Z" fill="#E60013"/>
    <path d="M127.393 26.0441C127.105 25.9823 126.821 25.9329 126.54 25.8917C126.26 25.8546 125.968 25.834 125.663 25.834C125.374 25.834 125.09 25.8546 124.81 25.8917C124.53 25.9288 124.27 25.9823 124.035 26.0441L125.535 22.9513C125.774 22.486 126.034 21.9465 126.322 21.337C126.611 20.7275 126.911 20.0686 127.225 19.3726C127.538 18.6767 127.863 17.9477 128.205 17.1859C128.543 16.4281 128.881 15.6663 129.223 14.9085C129.409 14.4761 129.623 13.9737 129.858 13.4095C130.097 12.8453 130.323 12.2853 130.546 11.7334C130.764 11.1816 130.97 10.6874 131.156 10.2468C131.341 9.80613 131.477 9.48903 131.564 9.30371C131.852 9.36548 132.149 9.4149 132.454 9.45608C132.759 9.49314 133.055 9.51374 133.344 9.51374C133.649 9.51374 133.954 9.49314 134.259 9.45608C134.564 9.41902 134.86 9.36548 135.149 9.30371C135.334 9.86378 135.573 10.5186 135.862 11.2681C136.15 12.0217 136.459 12.8124 136.789 13.6401C137.118 14.4679 137.456 15.2998 137.807 16.1275C138.153 16.9553 138.478 17.7295 138.783 18.4419C139.138 19.2656 139.455 19.9945 139.735 20.6287C140.015 21.2629 140.283 21.8641 140.535 22.4324C140.79 23.0007 141.054 23.569 141.334 24.1415C141.614 24.7139 141.931 25.3522 142.286 26.0482C141.795 25.9535 141.243 25.8958 140.633 25.8752C140.024 25.8505 139.463 25.8423 138.956 25.8423C138.412 25.8423 137.868 25.8629 137.316 25.8999C136.764 25.937 136.22 25.9905 135.676 26.0523C135.507 25.4634 135.334 24.8992 135.157 24.3556C134.98 23.812 134.778 23.2725 134.559 22.7289C133.999 22.7289 133.443 22.7248 132.882 22.7166C132.322 22.7083 131.766 22.7042 131.205 22.7042C130.764 22.7042 130.319 22.7083 129.87 22.7166C129.421 22.7248 128.976 22.7289 128.535 22.7289C128.296 23.2725 128.094 23.8202 127.925 24.3803C127.756 24.928 127.579 25.4881 127.393 26.0441ZM129.273 20.6245C129.458 20.641 129.643 20.6493 129.833 20.6493C130.018 20.6493 130.204 20.6493 130.393 20.6493H131.51H132.627C132.812 20.6493 132.998 20.6493 133.187 20.6493C133.373 20.6493 133.558 20.641 133.748 20.6245L131.564 15.205L129.273 20.6245Z" fill="#E60013"/>
    <path d="M163.252 9.72783C164.521 10.0902 165.63 10.6297 166.569 11.3422C167.509 12.0546 168.247 12.9359 168.782 13.9819C169.314 15.0279 169.582 16.2428 169.582 17.6224C169.582 19.0802 169.31 20.3486 168.77 21.4234C168.226 22.5024 167.484 23.396 166.545 24.1085C165.605 24.8209 164.488 25.3439 163.203 25.6775C161.913 26.0111 160.533 26.1758 159.061 26.1758C157.673 26.1758 156.358 25.9946 155.122 25.6281C153.886 25.2657 152.802 24.7221 151.871 24.0014C150.939 23.2807 150.206 22.3871 149.67 21.3246C149.139 20.2621 148.871 19.0555 148.871 17.7088C148.871 16.3128 149.135 15.0856 149.658 14.0231C150.181 12.9606 150.907 12.0711 151.83 11.3463C152.753 10.6256 153.84 10.082 155.097 9.7196C156.35 9.3572 157.706 9.17188 159.164 9.17188C160.619 9.18423 161.983 9.36543 163.252 9.72783ZM160.94 24.022C161.381 23.8037 161.752 23.5237 162.057 23.1736C162.362 22.8236 162.609 22.4159 162.795 21.9505C162.98 21.4852 163.124 21.0075 163.227 20.5215C163.33 20.0315 163.396 19.5414 163.429 19.0431C163.462 18.5489 163.479 18.0877 163.479 17.6718C163.479 17.0046 163.434 16.2881 163.339 15.5221C163.244 14.7561 163.05 14.0437 162.754 13.3806C162.457 12.7217 162.024 12.174 161.456 11.7416C160.887 11.3092 160.129 11.0909 159.181 11.0909C158.283 11.0909 157.557 11.2969 157.009 11.7087C156.457 12.1205 156.029 12.6353 155.724 13.2571C155.419 13.8789 155.217 14.5543 155.114 15.2915C155.011 16.0286 154.961 16.7122 154.961 17.3506C154.961 17.8324 154.974 18.3389 154.998 18.8743C155.023 19.4096 155.089 19.9368 155.188 20.4557C155.291 20.9745 155.435 21.4687 155.621 21.9341C155.806 22.3994 156.066 22.8154 156.395 23.1778C156.725 23.5402 157.133 23.8284 157.615 24.0385C158.097 24.2485 158.678 24.3514 159.358 24.3514C159.976 24.3473 160.5 24.2402 160.94 24.022Z" fill="#E60013"/>
    <path d="M186.893 23.6845C187.4 23.6763 187.964 23.6598 188.582 23.6392C189.2 23.6145 189.822 23.5898 190.449 23.5568C191.075 23.5239 191.594 23.4786 191.998 23.4168C191.965 23.5857 191.936 23.7833 191.908 24.0098C191.883 24.2363 191.87 24.4875 191.87 24.7635C191.87 24.9817 191.883 25.1917 191.908 25.4018C191.932 25.6118 191.961 25.826 191.998 26.0401C190.931 25.9619 189.979 25.9083 189.138 25.8754C188.298 25.8424 187.465 25.8301 186.633 25.8301C185.718 25.8301 184.667 25.8465 183.481 25.8754C182.294 25.9083 181.066 25.9619 179.797 26.0401C179.949 25.3565 180.052 24.6358 180.102 23.8781C180.151 23.1203 180.176 22.4038 180.176 21.7366V20.5259C180.176 19.7805 180.172 19.1051 180.163 18.4915C180.155 17.8779 180.147 17.3013 180.139 16.7577C180.131 16.2141 180.118 15.6911 180.102 15.1887C180.085 14.6863 180.069 14.1633 180.052 13.6197C180.019 12.9073 179.995 12.1742 179.974 11.4206C179.957 10.667 179.904 9.9916 179.821 9.38623C180.889 9.52625 181.972 9.59625 183.077 9.59625C183.6 9.59625 184.107 9.57978 184.589 9.55095C185.071 9.51801 185.566 9.46448 186.077 9.38623C186.027 9.78981 185.986 10.3293 185.961 11.0005C185.937 11.6759 185.912 12.3925 185.887 13.1502C185.862 13.9121 185.846 14.6616 185.838 15.407C185.83 16.1524 185.825 16.7948 185.825 17.3384V18.4091C185.825 18.6274 185.83 18.9857 185.838 19.4922C185.846 19.9987 185.85 20.5259 185.85 21.0859C185.85 21.646 185.854 22.1731 185.862 22.6673C185.871 23.1656 185.875 23.5033 185.875 23.6927C186.044 23.6969 186.382 23.6927 186.893 23.6845Z" fill="#E60013"/>
    <path d="M17.0106 2.67146e-06L0 17L17.0106 34L34.0212 17L17.0106 2.67146e-06Z" fill="black"/>
    <path d="M22.7526 21.2712H12.7887C12.2736 21.2712 11.7297 21.2959 11.4659 21.3783C11.3588 21.403 11.2681 21.3659 11.2146 21.2589C11.161 21.1518 11.1074 21.0077 11.0703 20.8635C11.058 20.8223 11.058 20.7976 11.058 20.7729C11.058 20.7482 11.0703 20.7317 11.1116 20.7317C11.1363 20.7317 11.1651 20.7317 11.2187 20.7441C11.6143 20.8635 12.3066 20.9171 12.7969 20.9171H15.9122C15.9369 19.9493 15.9658 18.6397 15.9658 17.4207H14.2309C13.7159 17.4207 13.1719 17.4454 12.9082 17.5278C12.8011 17.5525 12.7104 17.5154 12.6568 17.4084C12.6033 17.3013 12.5497 17.1572 12.5126 17.013C12.5002 16.9719 12.5002 16.9471 12.5002 16.9183C12.5002 16.8936 12.5126 16.8771 12.5538 16.8771C12.5785 16.8771 12.6074 16.8771 12.661 16.8895C13.0565 17.0089 13.7488 17.0625 14.2392 17.0625H15.974C15.974 16.1235 15.9617 15.2752 15.9328 14.6945H13.8395C13.3244 14.6945 12.7805 14.7192 12.5167 14.8016C12.4096 14.8263 12.3189 14.7892 12.2654 14.6822C12.2242 14.5916 12.1747 14.4845 12.1459 14.3651C12.1211 14.3651 12.1047 14.3651 12.0799 14.3651C11.6019 14.3651 11.2187 13.9821 11.2187 13.5044C11.2187 13.3479 11.2599 13.1873 11.3629 13.0143C11.7997 12.3142 12.4219 12.656 12.5703 11.2929C12.5827 11.1611 12.6239 11.0952 12.6774 11.0952C12.7186 11.0952 12.7846 11.1488 12.834 11.2682C12.9 11.4288 12.9782 11.6388 13.0483 11.8653H16.0276C16.0523 11.3506 16.04 10.8852 15.9864 10.5805C15.9575 10.4075 15.9328 10.2881 15.9328 10.2386C15.9328 10.1728 15.9575 10.1604 16.0276 10.1604C16.0688 10.1604 16.1059 10.1728 16.1718 10.1728C16.7158 10.2263 17.3503 10.2922 18.0261 10.3993C18.2116 10.424 18.3064 10.5187 18.3064 10.6216C18.3064 10.7287 18.2281 10.8317 18.055 10.8852C17.8696 10.9511 17.7088 10.9758 17.6965 11.1488C17.6841 11.3094 17.6841 11.6265 17.6841 11.8653C17.6965 11.8653 20.3997 11.8653 20.3997 11.8653C20.5439 11.8653 20.5851 11.853 20.6923 11.7583C20.8365 11.6265 21.1291 11.3753 21.2733 11.2558C21.3268 11.2023 21.3804 11.1899 21.4216 11.1899C21.4876 11.1899 21.5411 11.2311 21.6194 11.2805C21.9903 11.5729 22.4683 11.993 22.7732 12.3019C22.9051 12.4336 22.971 12.5942 22.971 12.726C22.971 12.9237 22.8268 13.0967 22.5342 13.0967C22.4683 13.0967 22.39 13.0967 22.2952 13.0719C22.1098 13.0184 21.9367 13.0061 21.7801 13.0061C21.2898 13.0061 20.9065 13.2326 20.1648 13.6279C20.1236 13.6526 20.0865 13.6526 20.0577 13.6526C19.9917 13.6526 19.9382 13.6114 19.9382 13.562C19.9382 13.5373 19.9505 13.5085 19.9794 13.4714C20.309 13.0061 20.5357 12.6643 20.7623 12.2277H13.1183C13.1596 12.4254 13.1843 12.6395 13.1843 12.8496C13.1843 13.3396 13.0524 13.8132 12.6527 14.1344C12.5991 14.1756 12.5579 14.2127 12.5085 14.2415C12.9041 14.3074 13.4233 14.3486 13.8189 14.3486H19.5426C19.6744 14.3486 19.728 14.3239 19.8187 14.2292C20.0329 14.0191 20.2843 13.7391 20.5192 13.4879C20.5728 13.4344 20.6098 13.422 20.6634 13.422C20.7046 13.422 20.7582 13.4344 20.8076 13.4755C21.1785 13.7144 21.6565 14.0727 22.0645 14.4021C22.1057 14.4433 22.1592 14.5092 22.1592 14.5751C22.1592 14.641 22.1057 14.7069 21.9491 14.7069H17.7047C17.6924 15.2875 17.68 16.1482 17.6635 17.0748H18.9904C19.1223 17.0748 19.1758 17.0624 19.2665 16.9554C19.4643 16.7165 19.7692 16.3459 19.9959 16.0823C20.0371 16.0288 20.0741 16.0041 20.1154 16.0041C20.1524 16.0041 20.206 16.0288 20.2719 16.0823C20.684 16.3871 21.0672 16.7042 21.5164 17.1283C21.5576 17.1695 21.6071 17.2354 21.6071 17.3013C21.6071 17.3672 21.5535 17.4331 21.3969 17.4331H17.6635C17.6635 18.6644 17.6635 19.9905 17.6882 20.9294H20.206C20.3132 20.9294 20.4162 20.8882 20.4821 20.81C20.7211 20.5176 21.0508 20.1346 21.2898 19.8834C21.3433 19.8299 21.3681 19.801 21.4216 19.801C21.4628 19.801 21.4999 19.8299 21.57 19.8834C21.9944 20.2129 22.4312 20.5588 22.868 20.9829C22.9339 21.0488 22.9587 21.1147 22.9587 21.1683C22.9628 21.2177 22.8969 21.2712 22.7526 21.2712ZM19.9835 20.3323C19.7321 20.3323 19.4808 20.2005 19.3324 19.8958C19.0398 19.311 19.2665 18.8086 18.4959 18.2403C18.4423 18.1991 18.4053 18.1332 18.4053 18.0961C18.4053 18.0549 18.4465 18.0179 18.5371 18.0179C18.5495 18.0179 18.5783 18.0179 18.5907 18.0179C19.5179 18.1249 20.4327 18.4297 20.7252 19.2368C20.7664 19.3439 20.7788 19.4469 20.7788 19.5416C20.7747 19.9987 20.3791 20.3323 19.9835 20.3323Z" fill="white"/>
    <path d="M17.0131 32.4859L1.51501 16.9975L17.0131 1.50903L32.5112 16.9975L17.0131 32.4859ZM2.96551 16.9975L17.0172 31.0404L31.0689 16.9975L17.0172 2.9545L2.96551 16.9975Z" fill="white"/>
    <path d="M16.685 4.43188H16.0463V5.07059H16.685V4.43188Z" fill="white"/>
    <path d="M16.0444 5.07935H15.4056V5.71807H16.0444V5.07935Z" fill="white"/>
    <path d="M15.3969 5.72485H14.7582V6.36356H15.3969V5.72485Z" fill="white"/>
    <path d="M14.7553 6.36743H14.1166V7.00615H14.7553V6.36743Z" fill="white"/>
    <path d="M14.1059 7.00977H13.4672V7.64849H14.1059V7.00977Z" fill="white"/>
    <path d="M13.4662 7.65649H12.8275V8.2952H13.4662V7.65649Z" fill="white"/>
    <path d="M12.8168 8.29858H12.1781V8.93729H12.8168V8.29858Z" fill="white"/>
    <path d="M12.1742 8.94531H11.5355V9.58402H12.1742V8.94531Z" fill="white"/>
    <path d="M11.5287 9.58813H10.89V10.2268H11.5287V9.58813Z" fill="white"/>
    <path d="M10.8842 10.2341H10.2455V10.8728H10.8842V10.2341Z" fill="white"/>
    <path d="M10.2397 10.8762H9.60095V11.5149H10.2397V10.8762Z" fill="white"/>
    <path d="M9.59514 11.5232H8.95642V12.1619H9.59514V11.5232Z" fill="white"/>
    <path d="M8.94767 12.1652L8.30896 12.166L8.30978 12.8047L8.9485 12.8039L8.94767 12.1652Z" fill="white"/>
    <path d="M8.30216 12.8118H7.66345V13.4505H8.30216V12.8118Z" fill="white"/>
    <path d="M7.66252 13.4546H7.0238V14.0933H7.66252V13.4546Z" fill="white"/>
    <path d="M7.0131 14.1008H6.37439V14.7396H7.0131V14.1008Z" fill="white"/>
    <path d="M6.3676 14.7437H5.72888V15.3824H6.3676V14.7437Z" fill="white"/>
    <path d="M5.72502 15.3901H5.0863V16.0288H5.72502V15.3901Z" fill="white"/>
    <path d="M5.08244 16.0324L4.44373 16.0332L4.44455 16.6719L5.08326 16.6711L5.08244 16.0324Z" fill="white"/>
    <path d="M4.43498 16.6789L3.79626 16.6797L3.79705 17.3184L4.43576 17.3176L4.43498 16.6789Z" fill="white"/>
    <path d="M5.08244 17.3215H4.44373V17.9602H5.08244V17.3215Z" fill="white"/>
    <path d="M5.72502 17.9683H5.0863V18.607H5.72502V17.9683Z" fill="white"/>
    <path d="M6.3676 18.6103L5.72888 18.6111L5.72966 19.2498L6.36838 19.249L6.3676 18.6103Z" fill="white"/>
    <path d="M7.0131 19.2571H6.37439V19.8958H7.0131V19.2571Z" fill="white"/>
    <path d="M7.66252 19.8997H7.0238V20.5384H7.66252V19.8997Z" fill="white"/>
    <path d="M8.30216 20.5461H7.66345V21.1849H8.30216V20.5461Z" fill="white"/>
    <path d="M8.94767 21.1885H8.30896V21.8272H8.94767V21.1885Z" fill="white"/>
    <path d="M9.59514 21.8352H8.95642V22.4739H9.59514V21.8352Z" fill="white"/>
    <path d="M10.2397 22.4778H9.60095V23.1165H10.2397V22.4778Z" fill="white"/>
    <path d="M10.8842 23.1201H10.2455V23.7588H10.8842V23.1201Z" fill="white"/>
    <path d="M11.5287 23.7668H10.89V24.4056H11.5287V23.7668Z" fill="white"/>
    <path d="M12.1742 24.4131H11.5355V25.0518H12.1742V24.4131Z" fill="white"/>
    <path d="M12.8168 25.0554H12.1781V25.6941H12.8168V25.0554Z" fill="white"/>
    <path d="M13.4662 25.6975H12.8275V26.3362H13.4662V25.6975Z" fill="white"/>
    <path d="M14.1059 26.3445H13.4672V26.9832H14.1059V26.3445Z" fill="white"/>
    <path d="M14.7553 26.9866H14.1166V27.6253H14.7553V26.9866Z" fill="white"/>
    <path d="M15.3969 27.6335H14.7582V28.2723H15.3969V27.6335Z" fill="white"/>
    <path d="M16.0434 28.28H15.4047V28.9188H16.0434V28.28Z" fill="white"/>
    <path d="M16.686 28.9226H16.0472V29.5613H16.686V28.9226Z" fill="white"/>
    <path d="M17.3334 29.5649H16.6947V30.2036H17.3334V29.5649Z" fill="white"/>
    <path d="M17.974 28.9221H17.3353V29.5608H17.974V28.9221Z" fill="white"/>
    <path d="M18.6225 28.28H17.9838V28.9188H18.6225V28.28Z" fill="white"/>
    <path d="M19.266 27.6335H18.6273V28.2723H19.266V27.6335Z" fill="white"/>
    <path d="M19.9125 26.9871H19.2738V27.6258H19.9125V26.9871Z" fill="white"/>
    <path d="M20.5551 26.3445H19.9164V26.9832H20.5551V26.3445Z" fill="white"/>
    <path d="M21.2016 25.698H20.5629V26.3367H21.2016V25.698Z" fill="white"/>
    <path d="M21.8461 25.0554H21.2074V25.6941H21.8461V25.0554Z" fill="white"/>
    <path d="M22.4926 24.4131H21.8539V25.0518H22.4926V24.4131Z" fill="white"/>
    <path d="M23.1352 23.7666H22.4965V24.4053H23.1352V23.7666Z" fill="white"/>
    <path d="M23.7817 23.1201H23.1429V23.7588H23.7817V23.1201Z" fill="white"/>
    <path d="M24.4272 22.4778H23.7885V23.1165H24.4272V22.4778Z" fill="white"/>
    <path d="M25.0727 21.8352H24.434V22.4739H25.0727V21.8352Z" fill="white"/>
    <path d="M25.7162 21.1887H25.0775V21.8274H25.7162V21.1887Z" fill="white"/>
    <path d="M26.3617 20.5461H25.723V21.1849H26.3617V20.5461Z" fill="white"/>
    <path d="M27.0043 19.8997H26.3656V20.5384H27.0043V19.8997Z" fill="white"/>
    <path d="M27.6508 19.2571H27.0121V19.8958H27.6508V19.2571Z" fill="white"/>
    <path d="M28.2944 18.6106H27.6556V19.2493H28.2944V18.6106Z" fill="white"/>
    <path d="M28.9428 17.968H28.3041V18.6067H28.9428V17.968Z" fill="white"/>
    <path d="M29.5844 17.3215H28.9457V17.9602H29.5844V17.3215Z" fill="white"/>
    <path d="M30.2309 16.6792H29.5922V17.3179H30.2309V16.6792Z" fill="white"/>
    <path d="M29.5844 16.0327H28.9457V16.6714H29.5844V16.0327Z" fill="white"/>
    <path d="M28.9428 15.3899H28.3041V16.0286H28.9428V15.3899Z" fill="white"/>
    <path d="M28.2944 14.7437H27.6556V15.3824H28.2944V14.7437Z" fill="white"/>
    <path d="M27.6508 14.1013H27.0121V14.74H27.6508V14.1013Z" fill="white"/>
    <path d="M27.0043 13.4546H26.3656V14.0933H27.0043V13.4546Z" fill="white"/>
    <path d="M26.3617 12.8123H25.723V13.451H26.3617V12.8123Z" fill="white"/>
    <path d="M25.7162 12.1653H25.0775V12.804H25.7162V12.1653Z" fill="white"/>
    <path d="M25.0727 11.5232H24.434V12.1619H25.0727V11.5232Z" fill="white"/>
    <path d="M24.4272 10.8762H23.7885V11.5149H24.4272V10.8762Z" fill="white"/>
    <path d="M23.7817 10.2341H23.1429V10.8728H23.7817V10.2341Z" fill="white"/>
    <path d="M23.1352 9.58765H22.4965V10.2264H23.1352V9.58765Z" fill="white"/>
    <path d="M22.4926 8.94531H21.8539V9.58402H22.4926V8.94531Z" fill="white"/>
    <path d="M21.8461 8.29858H21.2074V8.93729H21.8461V8.29858Z" fill="white"/>
    <path d="M21.2016 7.65625H20.5629V8.29496H21.2016V7.65625Z" fill="white"/>
    <path d="M20.5551 7.00977H19.9164V7.64849H20.5551V7.00977Z" fill="white"/>
    <path d="M19.9125 6.36719H19.2738V7.00591H19.9125V6.36719Z" fill="white"/>
    <path d="M19.266 5.72485H18.6273V6.36356H19.266V5.72485Z" fill="white"/>
    <path d="M18.623 5.0791H17.9843V5.71782H18.623V5.0791Z" fill="white"/>
    <path d="M17.9779 4.43188H17.3392V5.07059H17.9779V4.43188Z" fill="white"/>
    <path d="M17.3334 3.78931H16.6947V4.42803H17.3334V3.78931Z" fill="white"/>
    <path d="M15.0411 23.0251C15.0205 23.0251 14.9999 23.0251 14.9752 23.0168C14.7815 22.9756 14.6167 22.9551 14.3983 22.9551C14.423 23.8528 14.4725 24.0628 14.4725 24.2152C14.4725 24.2358 14.4725 24.2605 14.4683 24.2811C14.4436 24.4664 14.3365 24.6023 14.217 24.6106C14.2128 24.6106 14.2046 24.6106 14.1964 24.6106C14.1057 24.6106 14.0274 24.5529 13.9986 24.4458C13.9656 24.3429 13.8296 24.2523 13.57 24.1287C13.5329 24.1123 13.5164 24.0999 13.5164 24.0958C13.5164 24.0917 13.5247 24.0875 13.5412 24.0875C13.5535 24.0875 13.57 24.0876 13.5906 24.0917C13.776 24.1123 13.8956 24.1246 14.048 24.1329C14.0521 24.1329 14.0563 24.1329 14.0604 24.1329C14.1139 24.1329 14.1263 24.1164 14.1263 24.0711C14.1263 24.0628 14.1263 24.0628 14.1263 24.0546C14.1181 23.754 14.1057 23.6222 14.0892 23.2351C13.7431 23.7416 13.3557 24.034 12.7211 24.2276C12.6964 24.2358 12.6799 24.2399 12.6717 24.2399C12.6676 24.2399 12.6635 24.2358 12.6635 24.2317C12.6635 24.2235 12.6799 24.207 12.7129 24.1864C13.1332 23.9105 13.5783 23.4657 13.8008 23.0004C13.6236 23.0209 13.4711 23.0539 13.3269 23.0868C13.2156 23.1115 13.1621 23.1651 13.1044 23.1651C12.9766 23.1651 12.853 22.9509 12.853 22.8109C12.853 22.7944 12.8571 22.7739 12.8571 22.7574C12.8654 22.7286 12.8695 22.7162 12.8777 22.7162C12.8819 22.7162 12.8942 22.7286 12.9066 22.7491C12.9601 22.8233 13.0673 22.8439 13.1909 22.8439C13.2156 22.8439 13.2445 22.8439 13.2692 22.8397C13.4835 22.8233 13.7431 22.7903 14.0645 22.7656C14.0563 22.6462 14.0521 22.5144 14.0357 22.3785C14.0274 22.292 13.9532 22.2055 13.8337 22.1973C13.8049 22.1932 13.7884 22.185 13.7884 22.1726C13.7884 22.1602 13.8049 22.1438 13.842 22.1191C13.8914 22.0902 13.9532 22.0779 14.0151 22.0779C14.1964 22.0779 14.4106 22.1767 14.4312 22.2838C14.4354 22.2961 14.4354 22.3085 14.4354 22.3167C14.4354 22.3826 14.3818 22.3826 14.3818 22.4732C14.3818 22.5762 14.3859 22.638 14.3859 22.745C14.4972 22.7409 14.5384 22.7368 14.6496 22.7368C14.7485 22.7327 14.7609 22.6874 14.8351 22.6874C14.8392 22.6874 14.8516 22.6915 14.8598 22.6915C15.0782 22.7203 15.173 22.8233 15.173 22.9056C15.1812 22.9756 15.1318 23.0251 15.0411 23.0251Z" fill="white"/>
    <path d="M17.787 22.4777C17.7622 22.5683 17.721 22.5271 17.5974 22.6465C17.482 22.7577 17.3625 22.8689 17.1936 23.0089C17.2925 23.0501 17.3502 23.1284 17.3502 23.1984C17.3502 23.2025 17.3502 23.2025 17.3502 23.2066C17.3502 23.2807 17.309 23.2807 17.3048 23.396C17.3007 23.4908 17.3007 23.5814 17.3007 23.6637C17.3007 24.0755 17.3296 24.265 17.3296 24.4297C17.3296 24.4627 17.3296 24.4915 17.3254 24.5244C17.3172 24.6439 17.2307 24.7221 17.1441 24.7221C17.0576 24.7221 16.9628 24.648 16.9298 24.4503C16.9257 24.4215 16.9257 24.3968 16.9257 24.3762C16.9257 24.2691 16.9875 24.265 16.9875 23.5649C16.9875 23.5237 16.9875 23.4825 16.9875 23.4413C16.9875 23.326 16.9793 23.2725 16.9463 23.2231C16.6043 23.4866 16.2747 23.6761 15.7719 23.8779C15.7554 23.882 15.739 23.8861 15.7307 23.8861C15.7225 23.8861 15.7142 23.882 15.7142 23.8779C15.7142 23.8696 15.7266 23.8573 15.7554 23.8367C16.423 23.3878 16.9999 22.8277 17.2348 22.4736C17.2966 22.3871 17.3337 22.313 17.3337 22.2471C17.3337 22.2141 17.3254 22.1812 17.3007 22.1441C17.2842 22.1235 17.276 22.1071 17.276 22.0906C17.276 22.0741 17.2966 22.0618 17.346 22.0618C17.3502 22.0618 17.3625 22.0618 17.3666 22.0618C17.5933 22.0618 17.7952 22.3089 17.7952 22.4489C17.7911 22.453 17.7911 22.4695 17.787 22.4777Z" fill="white"/>
    <path d="M19.6569 23.0791C19.6198 23.6474 19.4344 24.088 18.7792 24.4175C18.7669 24.4257 18.7545 24.4257 18.7463 24.4298C18.738 24.434 18.7298 24.4381 18.7256 24.4381C18.7215 24.4381 18.7174 24.434 18.7174 24.4298C18.7174 24.4216 18.7256 24.4051 18.7504 24.3804C19.1583 23.9809 19.3067 23.4415 19.3067 23.0255C19.3067 22.8649 19.2819 22.7949 19.1666 22.7537C19.1377 22.7414 19.1212 22.7331 19.1212 22.7249C19.1212 22.7126 19.1377 22.7002 19.1624 22.6878C19.1954 22.6714 19.2366 22.6631 19.2819 22.6631C19.4633 22.6631 19.7023 22.7826 19.7064 22.8979C19.7064 22.902 19.7064 22.9061 19.7064 22.9061C19.7105 22.9885 19.6652 22.9844 19.6569 23.0791ZM21.5525 23.0173C21.2352 23.5527 20.8684 23.8904 20.3863 24.1951C20.2792 24.261 20.2709 24.3351 20.1967 24.3516C20.1926 24.3516 20.1885 24.3557 20.1803 24.3557C20.069 24.3557 19.863 24.1663 19.863 24.0715C19.863 24.0098 19.9083 23.9768 19.9124 23.8945C19.9165 23.7503 19.9207 23.5568 19.9207 23.355C19.9207 23.1203 19.9124 22.8773 19.9001 22.7043C19.8836 22.5478 19.8671 22.5025 19.7723 22.4819C19.7311 22.4737 19.7064 22.4613 19.7064 22.4449C19.7064 22.4325 19.7229 22.416 19.7476 22.3996C19.7888 22.3707 19.8382 22.3584 19.8959 22.3584C20.0772 22.3584 20.3121 22.4861 20.3163 22.589C20.3163 22.5931 20.3163 22.5973 20.3163 22.6014C20.3163 22.6714 20.2668 22.6755 20.2586 22.7867C20.2421 23.0049 20.238 23.182 20.238 23.7833C20.238 23.8121 20.2421 23.8245 20.2544 23.8245C20.2627 23.8245 20.2709 23.8203 20.2833 23.8162C20.6253 23.6721 21.0992 23.355 21.503 23.0008C21.5195 22.9844 21.536 22.9761 21.5442 22.9761C21.5525 22.9761 21.5566 22.9802 21.5566 22.9885C21.569 22.9885 21.5607 23.0008 21.5525 23.0173Z" fill="white"/>
    <path d="M178.438 20.435C178.438 24.3596 176.786 26.0687 174.746 26.0687C172.706 26.0687 171.054 24.3555 171.054 20.435C171.054 16.5145 174.746 11.1321 174.746 11.1321C174.746 11.1321 178.438 16.5145 178.438 20.435Z" fill="#E60013"/>
    <path d="M176.826 7.72693C176.826 8.87178 175.894 9.80247 174.749 9.80247C173.603 9.80247 172.672 8.87178 172.672 7.72693C172.672 6.58208 173.603 5.65137 174.749 5.65137C175.898 5.65137 176.826 6.58208 176.826 7.72693Z" fill="#E60013"/>
</svg>
