<svg width="19" height="30" viewBox="0 0 19 30" fill="none" xmlns="http://www.w3.org/2000/svg">
    <path d="M9.5 0C4.26158 0 0 4.25982 0 9.49539V19.0051C0 24.2406 4.26158 28.5 9.5 28.5C14.7384 28.5 19 24.2407 19 19.0051V9.49539C19 4.25982 14.7383 0 9.5 0ZM17.9445 19.0051C17.9445 23.6587 14.1563 27.4445 9.5 27.4445C4.84373 27.4445 1.05554 23.6587 1.05554 19.0051V9.49539C1.05554 4.84183 4.84373 1.05554 9.5 1.05554C14.1563 1.05554 17.9445 4.8417 17.9445 9.49539V19.0051Z" fill="white"/>
    <path d="M9.50147 3.16626C9.20999 3.16626 8.97363 3.40234 8.97363 3.6941V8.47349C8.97363 8.76524 9.20999 9.00133 9.50147 9.00133C9.79295 9.00133 10.0293 8.76524 10.0293 8.47349V3.6941C10.0292 3.40234 9.79295 3.16626 9.50147 3.16626Z" fill="white"/>
</svg>
